<svg xmlns="http://www.w3.org/2000/svg" viewBox="0 0 1200 675" width="1200" height="675">
<defs>
<linearGradient id="sky" x1="0" y1="0" x2="0" y2="1">
  <stop offset="0" stop-color="#8EC5E8"/><stop offset="1" stop-color="#D9EDF7"/>
</linearGradient>
<linearGradient id="skyNight" x1="0" y1="0" x2="0" y2="1">
  <stop offset="0" stop-color="#0B1B33"/><stop offset="1" stop-color="#26405F"/>
</linearGradient>
<linearGradient id="skyDusk" x1="0" y1="0" x2="0" y2="1">
  <stop offset="0" stop-color="#2E4A7A"/><stop offset="0.6" stop-color="#C97A5A"/>
  <stop offset="1" stop-color="#F0C08A"/>
</linearGradient>
<linearGradient id="skyStorm" x1="0" y1="0" x2="0" y2="1">
  <stop offset="0" stop-color="#5A6472"/><stop offset="1" stop-color="#98A2AE"/>
</linearGradient>
<linearGradient id="roadPersp" x1="0" y1="0" x2="0" y2="1">
  <stop offset="0" stop-color="#5A5F69"/><stop offset="1" stop-color="#3C4048"/>
</linearGradient>
<linearGradient id="glass" x1="0" y1="0" x2="0" y2="1">
  <stop offset="0" stop-color="#9FC4DE"/><stop offset="1" stop-color="#6E93AE"/>
</linearGradient>
<radialGradient id="headBeam" cx="0.5" cy="0" r="1">
  <stop offset="0" stop-color="#FFF6C8" stop-opacity="0.85"/>
  <stop offset="1" stop-color="#FFF6C8" stop-opacity="0"/>
</radialGradient>
<radialGradient id="glowW"><stop offset="0" stop-color="#fff" stop-opacity=".95"/>
  <stop offset="1" stop-color="#fff" stop-opacity="0"/></radialGradient>
<radialGradient id="glowR"><stop offset="0" stop-color="#FF3B30" stop-opacity=".95"/>
  <stop offset="1" stop-color="#FF3B30" stop-opacity="0"/></radialGradient>
<radialGradient id="glowB"><stop offset="0" stop-color="#3B82F6" stop-opacity=".95"/>
  <stop offset="1" stop-color="#3B82F6" stop-opacity="0"/></radialGradient>
<radialGradient id="glowA"><stop offset="0" stop-color="#FFB020" stop-opacity=".95"/>
  <stop offset="1" stop-color="#FFB020" stop-opacity="0"/></radialGradient>
<filter id="softShadow" x="-30%" y="-30%" width="160%" height="160%">
  <feDropShadow dx="0" dy="5" stdDeviation="6" flood-color="#000" flood-opacity="0.28"/>
</filter>
<filter id="tinyShadow" x="-30%" y="-30%" width="160%" height="160%">
  <feDropShadow dx="0" dy="2" stdDeviation="2.5" flood-color="#000" flood-opacity="0.3"/>
</filter>
<filter id="blurLight"><feGaussianBlur stdDeviation="10"/></filter>
<filter id="fogFilter"><feGaussianBlur stdDeviation="7"/></filter>
<pattern id="grassTex" width="26" height="26" patternUnits="userSpaceOnUse">
  <rect width="26" height="26" fill="#9CB380"/>
  <path d="M4 20 l3 -8 M13 24 l2 -9 M21 19 l3 -7" stroke="#8AA271" stroke-width="2"
        stroke-linecap="round" opacity=".7"/>
</pattern>
<pattern id="asphaltTex" width="8" height="8" patternUnits="userSpaceOnUse">
  <rect width="8" height="8" fill="#4A4E57"/>
  <circle cx="2" cy="3" r="0.7" fill="#565A63"/><circle cx="6" cy="6" r="0.6" fill="#41454D"/>
</pattern>
</defs><rect x="0" y="0" width="1200" height="675" rx="0" fill="url(#grassTex)" /><rect x="-20" y="238" width="1240" height="184" rx="0" fill="#8C8F96" /><rect x="-20" y="254" width="1240" height="152" rx="0" fill="url(#asphaltTex)" /><path d="M-20 324 H1220" fill="none" stroke="#F2C037" stroke-width="6" /><path d="M-20 336 H1220" fill="none" stroke="#F2C037" stroke-width="6" /><path d="M-20 258 H1220" fill="none" stroke="#F5F7FA" stroke-width="5" /><path d="M-20 402 H1220" fill="none" stroke="#F5F7FA" stroke-width="5" /><rect x="508" y="-20" width="184" height="715" rx="0" fill="#8C8F96" /><rect x="524" y="-20" width="152" height="715" rx="0" fill="url(#asphaltTex)" /><path d="M594 -20 V695" fill="none" stroke="#F2C037" stroke-width="6" /><path d="M606 -20 V695" fill="none" stroke="#F2C037" stroke-width="6" /><path d="M528 -20 V695" fill="none" stroke="#F5F7FA" stroke-width="5" /><path d="M672 -20 V695" fill="none" stroke="#F5F7FA" stroke-width="5" /><circle cx="600" cy="330" r="231" fill="#8C8F96" /><circle cx="600" cy="330" r="215" fill="url(#asphaltTex)" /><path d="M797.9547131293575 400.0994404390919 A210 210 0 0 1 670.099440439092 527.9547131293575" fill="none" stroke="#F5F7FA" stroke-width="5"/><path d="M529.900559560908 527.9547131293575 A210 210 0 0 1 402.04528687064254 400.09944043909195" fill="none" stroke="#F5F7FA" stroke-width="5"/><path d="M402.04528687064254 259.9005595609081 A210 210 0 0 1 529.900559560908 132.04528687064254" fill="none" stroke="#F5F7FA" stroke-width="5"/><path d="M670.099440439092 132.04528687064254 A210 210 0 0 1 797.9547131293575 259.90055956090805" fill="none" stroke="#F5F7FA" stroke-width="5"/><circle cx="600" cy="330" r="134" fill="#B9BCC1" stroke="#A7ABB2" stroke-width="3" /><circle cx="600" cy="330" r="118" fill="url(#grassTex)" stroke="#EDEFF2" stroke-width="4" /><g transform="translate(560,300)" filter="url(#tinyShadow)"><circle cx="0" cy="0" r="34" fill="#4E7D4A" /><circle cx="-14.28" cy="-12.92" r="19.72" fill="#5E9159" /><circle cx="13.600000000000001" cy="10.88" r="17.68" fill="#416C3F" /></g><g transform="translate(636,344)" filter="url(#tinyShadow)"><circle cx="0" cy="0" r="28" fill="#4E7D4A" /><circle cx="-11.76" cy="-10.64" r="16.24" fill="#5E9159" /><circle cx="11.200000000000001" cy="8.96" r="14.56" fill="#416C3F" /></g><g transform="translate(596,372)" filter="url(#tinyShadow)"><circle cx="0" cy="0" r="22" fill="#4E7D4A" /><circle cx="-9.24" cy="-8.36" r="12.76" fill="#5E9159" /><circle cx="8.8" cy="7.04" r="11.440000000000001" fill="#416C3F" /></g><polygon points="600,552 613,574 620,700 580,700 587,574" fill="#B9BCC1" stroke="#EDEFF2" stroke-width="4" /><polygon points="600,108 613,86 620,-20 580,-20 587,86" fill="#B9BCC1" stroke="#EDEFF2" stroke-width="4" /><polygon points="826,330 848,317 1220,310 1220,350 848,343" fill="#B9BCC1" stroke="#EDEFF2" stroke-width="4" /><polygon points="374,330 352,317 -20,310 -20,350 352,343" fill="#B9BCC1" stroke="#EDEFF2" stroke-width="4" /><path d="M606 556 H672" stroke="#F5F7FA" stroke-width="8" stroke-dasharray="18 14" fill="none"/><path d="M528 104 H594" stroke="#F5F7FA" stroke-width="8" stroke-dasharray="18 14" fill="none"/><path d="M376 336 V402" stroke="#F5F7FA" stroke-width="8" stroke-dasharray="18 14" fill="none"/><path d="M824 258 V324" stroke="#F5F7FA" stroke-width="8" stroke-dasharray="18 14" fill="none"/><g transform="translate(600,424)" filter="url(#softShadow)"><rect x="-75.0" y="-22.0" width="150" height="44" rx="5" fill="#FFCC00" stroke="#111418" stroke-width="4" /><path d="M-60.5 -12.32 L-38.5 0 L-60.5 12.32 L-51.5 0 Z" fill="#111418" /><path d="M-10.5 -12.32 L11.5 0 L-10.5 12.32 L-1.5 0 Z" fill="#111418" /><path d="M39.5 -12.32 L61.5 0 L39.5 12.32 L48.5 0 Z" fill="#111418" /></g><g transform="translate(722,604) rotate(0)" filter="url(#softShadow)"><polygon points="-47.0,-40.89 47.0,-40.89 0,40.89" fill="#C8102E" /><polygon points="-32.9,-31.485300000000002 32.9,-31.485300000000002 0,36.3921" fill="#FFFFFF" /><text x="0" y="-16.356" font-family="'Helvetica Neue', Helvetica, Arial, sans-serif" font-size="15.510000000000002" font-weight="700" fill="#C8102E" text-anchor="middle" dominant-baseline="central" >YIELD</text></g><g transform="translate(478,66) rotate(0)" filter="url(#softShadow)"><polygon points="-47.0,-40.89 47.0,-40.89 0,40.89" fill="#C8102E" /><polygon points="-32.9,-31.485300000000002 32.9,-31.485300000000002 0,36.3921" fill="#FFFFFF" /><text x="0" y="-16.356" font-family="'Helvetica Neue', Helvetica, Arial, sans-serif" font-size="15.510000000000002" font-weight="700" fill="#C8102E" text-anchor="middle" dominant-baseline="central" >YIELD</text></g><g transform="translate(322,452) rotate(0)" filter="url(#softShadow)"><polygon points="-47.0,-40.89 47.0,-40.89 0,40.89" fill="#C8102E" /><polygon points="-32.9,-31.485300000000002 32.9,-31.485300000000002 0,36.3921" fill="#FFFFFF" /><text x="0" y="-16.356" font-family="'Helvetica Neue', Helvetica, Arial, sans-serif" font-size="15.510000000000002" font-weight="700" fill="#C8102E" text-anchor="middle" dominant-baseline="central" >YIELD</text></g><g transform="translate(880,208) rotate(0)" filter="url(#softShadow)"><polygon points="-47.0,-40.89 47.0,-40.89 0,40.89" fill="#C8102E" /><polygon points="-32.9,-31.485300000000002 32.9,-31.485300000000002 0,36.3921" fill="#FFFFFF" /><text x="0" y="-16.356" font-family="'Helvetica Neue', Helvetica, Arial, sans-serif" font-size="15.510000000000002" font-weight="700" fill="#C8102E" text-anchor="middle" dominant-baseline="central" >YIELD</text></g><g transform="translate(180,150)" filter="url(#tinyShadow)"><circle cx="0" cy="0" r="30" fill="#4E7D4A" /><circle cx="-12.6" cy="-11.4" r="17.4" fill="#5E9159" /><circle cx="12.0" cy="9.6" r="15.600000000000001" fill="#416C3F" /></g><g transform="translate(1030,130)" filter="url(#tinyShadow)"><circle cx="0" cy="0" r="28" fill="#4E7D4A" /><circle cx="-11.76" cy="-10.64" r="16.24" fill="#5E9159" /><circle cx="11.200000000000001" cy="8.96" r="14.56" fill="#416C3F" /></g><g transform="translate(150,560)" filter="url(#tinyShadow)"><circle cx="0" cy="0" r="30" fill="#4E7D4A" /><circle cx="-12.6" cy="-11.4" r="17.4" fill="#5E9159" /><circle cx="12.0" cy="9.6" r="15.600000000000001" fill="#416C3F" /></g><g transform="translate(1060,570)" filter="url(#tinyShadow)"><circle cx="0" cy="0" r="26" fill="#4E7D4A" /><circle cx="-10.92" cy="-9.88" r="15.079999999999998" fill="#5E9159" /><circle cx="10.4" cy="8.32" r="13.52" fill="#416C3F" /></g><g transform="translate(280,610)" filter="url(#tinyShadow)"><circle cx="0" cy="0" r="22" fill="#4E7D4A" /><circle cx="-9.24" cy="-8.36" r="12.76" fill="#5E9159" /><circle cx="8.8" cy="7.04" r="11.440000000000001" fill="#416C3F" /></g><g transform="translate(638,646) rotate(-90) scale(1.0)" filter="url(#softShadow)">
    <rect x="-54.0" y="-26.0" width="108" height="52" rx="15.6"
          fill="#C0392B" stroke="#2A2D33" stroke-width="2.5"/>
    <path d="M-45.0 -23.0 h90 a6 6 0 0 1 6 6 v34 a6 6 0 0 1 -6 6 h-90 z"
          fill="#000" opacity="0.06"/>
    <path d="M10.8 -20.0 L32.4 -15.0 L32.4 15.0 L10.8 20.0 Z"
          fill="url(#glass)"/>
    <path d="M-32.4 -17.0 L-12.959999999999999 -20.0 L-12.959999999999999 20.0 L-32.4 17.0 Z"
          fill="url(#glass)" opacity="0.85"/>
    <rect x="-10.8" y="-19.0" width="21.6" height="38" rx="5"
          fill="#FFFFFF" opacity="0.10"/><rect x="-8.64" y="-22.0" width="21.6" height="5" rx="2.5" fill="url(#glass)"/><rect x="-8.64" y="17.0" width="21.6" height="5" rx="2.5" fill="url(#glass)"/><rect x="10.8" y="-32.0" width="13" height="7" rx="3" fill="#2A2D33"/><rect x="10.8" y="25.0" width="13" height="7" rx="3" fill="#2A2D33"/><rect x="46.0" y="-21.0" width="7" height="12" rx="3" fill="#FFF3C4"/><rect x="46.0" y="9.0" width="7" height="12" rx="3" fill="#FFF3C4"/><rect x="-53.0" y="-21.0" width="7" height="12" rx="3" fill="#B3261E"/><rect x="-53.0" y="9.0" width="7" height="12" rx="3" fill="#B3261E"/></g><g transform="translate(476,453) rotate(45) scale(1.0)" filter="url(#softShadow)">
    <rect x="-54.0" y="-26.0" width="108" height="52" rx="15.6"
          fill="#2F6FB2" stroke="#2A2D33" stroke-width="2.5"/>
    <path d="M-45.0 -23.0 h90 a6 6 0 0 1 6 6 v34 a6 6 0 0 1 -6 6 h-90 z"
          fill="#000" opacity="0.06"/>
    <path d="M10.8 -20.0 L32.4 -15.0 L32.4 15.0 L10.8 20.0 Z"
          fill="url(#glass)"/>
    <path d="M-32.4 -17.0 L-12.959999999999999 -20.0 L-12.959999999999999 20.0 L-32.4 17.0 Z"
          fill="url(#glass)" opacity="0.85"/>
    <rect x="-10.8" y="-19.0" width="21.6" height="38" rx="5"
          fill="#FFFFFF" opacity="0.10"/><rect x="-8.64" y="-22.0" width="21.6" height="5" rx="2.5" fill="url(#glass)"/><rect x="-8.64" y="17.0" width="21.6" height="5" rx="2.5" fill="url(#glass)"/><rect x="10.8" y="-32.0" width="13" height="7" rx="3" fill="#2A2D33"/><rect x="10.8" y="25.0" width="13" height="7" rx="3" fill="#2A2D33"/><rect x="46.0" y="-21.0" width="7" height="12" rx="3" fill="#FFF3C4"/><rect x="46.0" y="9.0" width="7" height="12" rx="3" fill="#FFF3C4"/><rect x="-53.0" y="-21.0" width="7" height="12" rx="3" fill="#B3261E"/><rect x="-53.0" y="9.0" width="7" height="12" rx="3" fill="#B3261E"/></g><g transform="translate(751,243) rotate(-120) scale(1.0)" filter="url(#softShadow)">
    <rect x="-54.0" y="-26.0" width="108" height="52" rx="15.6"
          fill="#9AA3AE" stroke="#2A2D33" stroke-width="2.5"/>
    <path d="M-45.0 -23.0 h90 a6 6 0 0 1 6 6 v34 a6 6 0 0 1 -6 6 h-90 z"
          fill="#000" opacity="0.06"/>
    <path d="M10.8 -20.0 L32.4 -15.0 L32.4 15.0 L10.8 20.0 Z"
          fill="url(#glass)"/>
    <path d="M-32.4 -17.0 L-12.959999999999999 -20.0 L-12.959999999999999 20.0 L-32.4 17.0 Z"
          fill="url(#glass)" opacity="0.85"/>
    <rect x="-10.8" y="-19.0" width="21.6" height="38" rx="5"
          fill="#FFFFFF" opacity="0.10"/><rect x="-8.64" y="-22.0" width="21.6" height="5" rx="2.5" fill="url(#glass)"/><rect x="-8.64" y="17.0" width="21.6" height="5" rx="2.5" fill="url(#glass)"/><rect x="10.8" y="-32.0" width="13" height="7" rx="3" fill="#2A2D33"/><rect x="10.8" y="25.0" width="13" height="7" rx="3" fill="#2A2D33"/><rect x="46.0" y="-21.0" width="7" height="12" rx="3" fill="#FFF3C4"/><rect x="46.0" y="9.0" width="7" height="12" rx="3" fill="#FFF3C4"/><rect x="-53.0" y="-21.0" width="7" height="12" rx="3" fill="#B3261E"/><rect x="-53.0" y="9.0" width="7" height="12" rx="3" fill="#B3261E"/></g><g transform="translate(150,368) rotate(0) scale(1.0)" filter="url(#softShadow)">
    <rect x="-54.0" y="-26.0" width="108" height="52" rx="15.6"
          fill="#3E8E63" stroke="#2A2D33" stroke-width="2.5"/>
    <path d="M-45.0 -23.0 h90 a6 6 0 0 1 6 6 v34 a6 6 0 0 1 -6 6 h-90 z"
          fill="#000" opacity="0.06"/>
    <path d="M10.8 -20.0 L32.4 -15.0 L32.4 15.0 L10.8 20.0 Z"
          fill="url(#glass)"/>
    <path d="M-32.4 -17.0 L-12.959999999999999 -20.0 L-12.959999999999999 20.0 L-32.4 17.0 Z"
          fill="url(#glass)" opacity="0.85"/>
    <rect x="-10.8" y="-19.0" width="21.6" height="38" rx="5"
          fill="#FFFFFF" opacity="0.10"/><rect x="-8.64" y="-22.0" width="21.6" height="5" rx="2.5" fill="url(#glass)"/><rect x="-8.64" y="17.0" width="21.6" height="5" rx="2.5" fill="url(#glass)"/><rect x="10.8" y="-32.0" width="13" height="7" rx="3" fill="#2A2D33"/><rect x="10.8" y="25.0" width="13" height="7" rx="3" fill="#2A2D33"/><rect x="46.0" y="-21.0" width="7" height="12" rx="3" fill="#FFF3C4"/><rect x="46.0" y="9.0" width="7" height="12" rx="3" fill="#FFF3C4"/><rect x="-53.0" y="-21.0" width="7" height="12" rx="3" fill="#B3261E"/><rect x="-53.0" y="9.0" width="7" height="12" rx="3" fill="#B3261E"/></g></svg>