<svg xmlns="http://www.w3.org/2000/svg" viewBox="0 0 1200 675" width="1200" height="675">
<defs>
<linearGradient id="sky" x1="0" y1="0" x2="0" y2="1">
  <stop offset="0" stop-color="#8EC5E8"/><stop offset="1" stop-color="#D9EDF7"/>
</linearGradient>
<linearGradient id="skyNight" x1="0" y1="0" x2="0" y2="1">
  <stop offset="0" stop-color="#0B1B33"/><stop offset="1" stop-color="#26405F"/>
</linearGradient>
<linearGradient id="skyDusk" x1="0" y1="0" x2="0" y2="1">
  <stop offset="0" stop-color="#2E4A7A"/><stop offset="0.6" stop-color="#C97A5A"/>
  <stop offset="1" stop-color="#F0C08A"/>
</linearGradient>
<linearGradient id="skyStorm" x1="0" y1="0" x2="0" y2="1">
  <stop offset="0" stop-color="#5A6472"/><stop offset="1" stop-color="#98A2AE"/>
</linearGradient>
<linearGradient id="roadPersp" x1="0" y1="0" x2="0" y2="1">
  <stop offset="0" stop-color="#5A5F69"/><stop offset="1" stop-color="#3C4048"/>
</linearGradient>
<linearGradient id="glass" x1="0" y1="0" x2="0" y2="1">
  <stop offset="0" stop-color="#9FC4DE"/><stop offset="1" stop-color="#6E93AE"/>
</linearGradient>
<radialGradient id="headBeam" cx="0.5" cy="0" r="1">
  <stop offset="0" stop-color="#FFF6C8" stop-opacity="0.85"/>
  <stop offset="1" stop-color="#FFF6C8" stop-opacity="0"/>
</radialGradient>
<radialGradient id="glowW"><stop offset="0" stop-color="#fff" stop-opacity=".95"/>
  <stop offset="1" stop-color="#fff" stop-opacity="0"/></radialGradient>
<radialGradient id="glowR"><stop offset="0" stop-color="#FF3B30" stop-opacity=".95"/>
  <stop offset="1" stop-color="#FF3B30" stop-opacity="0"/></radialGradient>
<radialGradient id="glowB"><stop offset="0" stop-color="#3B82F6" stop-opacity=".95"/>
  <stop offset="1" stop-color="#3B82F6" stop-opacity="0"/></radialGradient>
<radialGradient id="glowA"><stop offset="0" stop-color="#FFB020" stop-opacity=".95"/>
  <stop offset="1" stop-color="#FFB020" stop-opacity="0"/></radialGradient>
<filter id="softShadow" x="-30%" y="-30%" width="160%" height="160%">
  <feDropShadow dx="0" dy="5" stdDeviation="6" flood-color="#000" flood-opacity="0.28"/>
</filter>
<filter id="tinyShadow" x="-30%" y="-30%" width="160%" height="160%">
  <feDropShadow dx="0" dy="2" stdDeviation="2.5" flood-color="#000" flood-opacity="0.3"/>
</filter>
<filter id="blurLight"><feGaussianBlur stdDeviation="10"/></filter>
<filter id="fogFilter"><feGaussianBlur stdDeviation="7"/></filter>
<pattern id="grassTex" width="26" height="26" patternUnits="userSpaceOnUse">
  <rect width="26" height="26" fill="#9CB380"/>
  <path d="M4 20 l3 -8 M13 24 l2 -9 M21 19 l3 -7" stroke="#8AA271" stroke-width="2"
        stroke-linecap="round" opacity=".7"/>
</pattern>
<pattern id="asphaltTex" width="8" height="8" patternUnits="userSpaceOnUse">
  <rect width="8" height="8" fill="#4A4E57"/>
  <circle cx="2" cy="3" r="0.7" fill="#565A63"/><circle cx="6" cy="6" r="0.6" fill="#41454D"/>
</pattern>
</defs><rect x="0" y="0" width="1200" height="675" rx="0" fill="#A5B487" /><rect x="-20" y="256" width="1240" height="208" rx="0" fill="#8C8F96" /><rect x="-20" y="272" width="1240" height="176" rx="0" fill="url(#asphaltTex)" /><path d="M-20 354 H1220" fill="none" stroke="#F2C037" stroke-width="6" /><path d="M-20 366 H1220" fill="none" stroke="#F2C037" stroke-width="6" /><path d="M-20 276 H1220" fill="none" stroke="#F5F7FA" stroke-width="5" /><path d="M-20 444 H1220" fill="none" stroke="#F5F7FA" stroke-width="5" /><rect x="634.0" y="-20" width="132" height="292" rx="0" fill="#8B7355" opacity=".85"/><rect x="626.0" y="-14" width="148" height="13" rx="0" fill="#6B4F35" /><rect x="626.0" y="20" width="148" height="13" rx="0" fill="#6B4F35" /><rect x="626.0" y="54" width="148" height="13" rx="0" fill="#6B4F35" /><rect x="626.0" y="88" width="148" height="13" rx="0" fill="#6B4F35" /><rect x="626.0" y="122" width="148" height="13" rx="0" fill="#6B4F35" /><rect x="626.0" y="156" width="148" height="13" rx="0" fill="#6B4F35" /><rect x="626.0" y="190" width="148" height="13" rx="0" fill="#6B4F35" /><rect x="626.0" y="224" width="148" height="13" rx="0" fill="#6B4F35" /><rect x="666" y="-20" width="9" height="292" rx="0" fill="#9AA0A8" /><rect x="725" y="-20" width="9" height="292" rx="0" fill="#9AA0A8" /><rect x="634.0" y="448" width="132" height="247" rx="0" fill="#8B7355" opacity=".85"/><rect x="626.0" y="454" width="148" height="13" rx="0" fill="#6B4F35" /><rect x="626.0" y="488" width="148" height="13" rx="0" fill="#6B4F35" /><rect x="626.0" y="522" width="148" height="13" rx="0" fill="#6B4F35" /><rect x="626.0" y="556" width="148" height="13" rx="0" fill="#6B4F35" /><rect x="626.0" y="590" width="148" height="13" rx="0" fill="#6B4F35" /><rect x="626.0" y="624" width="148" height="13" rx="0" fill="#6B4F35" /><rect x="626.0" y="658" width="148" height="13" rx="0" fill="#6B4F35" /><rect x="666" y="448" width="9" height="247" rx="0" fill="#9AA0A8" /><rect x="725" y="448" width="9" height="247" rx="0" fill="#9AA0A8" /><rect x="634" y="272" width="132" height="176" rx="0" fill="#6A6E76" /><rect x="666" y="272" width="9" height="176" rx="0" fill="#9AA0A8" /><rect x="725" y="272" width="9" height="176" rx="0" fill="#9AA0A8" /><rect x="590" y="362" width="16" height="86" rx="0" fill="#F5F7FA" /><g transform="translate(452,405) rotate(90) scale(0.48,0.72)" opacity="0.92"><text x="0" y="-80" font-family="'Helvetica Neue', Helvetica, Arial, sans-serif" font-size="62" font-weight="700" fill="#F5F7FA" text-anchor="middle" dominant-baseline="central" >R</text><path d="M-28,-28 L28,28" fill="none" stroke="#F5F7FA" stroke-width="15" /><path d="M28,-28 L-28,28" fill="none" stroke="#F5F7FA" stroke-width="15" /><text x="0" y="80" font-family="'Helvetica Neue', Helvetica, Arial, sans-serif" font-size="62" font-weight="700" fill="#F5F7FA" text-anchor="middle" dominant-baseline="central" >R</text></g><rect x="806" y="-10" width="7" height="24" rx="2" fill="#8B7355" /><rect x="806" y="48" width="7" height="24" rx="2" fill="#8B7355" /><rect x="806" y="106" width="7" height="24" rx="2" fill="#8B7355" /><rect x="806" y="164" width="7" height="24" rx="2" fill="#8B7355" /><rect x="806" y="222" width="7" height="24" rx="2" fill="#8B7355" /><rect x="806" y="486" width="7" height="24" rx="2" fill="#8B7355" /><rect x="806" y="544" width="7" height="24" rx="2" fill="#8B7355" /><rect x="806" y="602" width="7" height="24" rx="2" fill="#8B7355" /><rect x="806" y="660" width="7" height="24" rx="2" fill="#8B7355" /><path d="M808 6 V232" fill="none" stroke="#A08A6B" stroke-width="6" /><path d="M808 500 V684" fill="none" stroke="#A08A6B" stroke-width="6" /><g transform="translate(578,522)" filter="url(#softShadow)"><g transform="rotate(-38)"><rect x="-53.36" y="-8.7" width="106.72" height="17.4" rx="3.48" fill="#FFFFFF" stroke="#111418" stroke-width="2.552"/></g><g transform="rotate(38)"><rect x="-53.36" y="-8.7" width="106.72" height="17.4" rx="3.48" fill="#FFFFFF" stroke="#111418" stroke-width="2.552"/></g><text x="0" y="-32.480000000000004" font-family="'Helvetica Neue', Helvetica, Arial, sans-serif" font-size="9.860000000000001" font-weight="700" fill="#111418" text-anchor="middle" dominant-baseline="central" >RAILROAD</text><text x="0" y="34.8" font-family="'Helvetica Neue', Helvetica, Arial, sans-serif" font-size="9.860000000000001" font-weight="700" fill="#111418" text-anchor="middle" dominant-baseline="central" >CROSSING</text></g><circle cx="300" cy="540" r="44" fill="#000000" opacity=".13"/><g transform="translate(300,530) rotate(0)" filter="url(#softShadow)"><circle cx="0" cy="0" r="50.0" fill="#FFCC00" stroke="#111418" stroke-width="5.0" /><path d="M-34.0 -34.0 L34.0 34.0" fill="none" stroke="#111418" stroke-width="5.5" /><path d="M34.0 -34.0 L-34.0 34.0" fill="none" stroke="#111418" stroke-width="5.5" /><text x="-30.0" y="0" font-family="'Helvetica Neue', Helvetica, Arial, sans-serif" font-size="30.0" font-weight="700" fill="#111418" text-anchor="middle" dominant-baseline="central" >R</text><text x="30.0" y="0" font-family="'Helvetica Neue', Helvetica, Arial, sans-serif" font-size="30.0" font-weight="700" fill="#111418" text-anchor="middle" dominant-baseline="central" >R</text></g><g transform="translate(824,202)" filter="url(#softShadow)"><g transform="rotate(-38)"><rect x="-50.6" y="-8.25" width="101.2" height="16.5" rx="3.3" fill="#FFFFFF" stroke="#111418" stroke-width="2.42"/></g><g transform="rotate(38)"><rect x="-50.6" y="-8.25" width="101.2" height="16.5" rx="3.3" fill="#FFFFFF" stroke="#111418" stroke-width="2.42"/></g><text x="0" y="-30.800000000000004" font-family="'Helvetica Neue', Helvetica, Arial, sans-serif" font-size="9.350000000000001" font-weight="700" fill="#111418" text-anchor="middle" dominant-baseline="central" >RAILROAD</text><text x="0" y="33.0" font-family="'Helvetica Neue', Helvetica, Arial, sans-serif" font-size="9.350000000000001" font-weight="700" fill="#111418" text-anchor="middle" dominant-baseline="central" >CROSSING</text></g><g transform="translate(112,604)" filter="url(#tinyShadow)"><circle cx="0" cy="0" r="32" fill="#4E8A50" /><circle cx="-7.04" cy="-5.76" r="17.6" fill="#3E7241" opacity=".45"/></g><g transform="translate(200,640)" opacity=".95"><circle cx="0" cy="0" r="20" fill="#8A9A6A" /><circle cx="12.0" cy="6.0" r="13.600000000000001" fill="#8A9A6A" /><circle cx="-11.0" cy="7.0" r="12.0" fill="#8A9A6A" /></g><g transform="translate(944,598)" opacity=".95"><circle cx="0" cy="0" r="22" fill="#8A9A6A" /><circle cx="13.2" cy="6.6" r="14.96" fill="#8A9A6A" /><circle cx="-12.100000000000001" cy="7.699999999999999" r="13.2" fill="#8A9A6A" /></g><g transform="translate(1040,124)" filter="url(#tinyShadow)"><circle cx="0" cy="0" r="28" fill="#5A9455" /><circle cx="-6.16" cy="-5.04" r="15.400000000000002" fill="#47784B" opacity=".45"/></g><g transform="translate(126,138)" opacity=".95"><circle cx="0" cy="0" r="22" fill="#8A9A6A" /><circle cx="13.2" cy="6.6" r="14.96" fill="#8A9A6A" /><circle cx="-12.100000000000001" cy="7.699999999999999" r="13.2" fill="#8A9A6A" /></g><g transform="translate(452,604)" opacity=".95"><circle cx="0" cy="0" r="19" fill="#8A9A6A" /><circle cx="11.4" cy="5.7" r="12.920000000000002" fill="#8A9A6A" /><circle cx="-10.450000000000001" cy="6.6499999999999995" r="11.4" fill="#8A9A6A" /></g><g transform="translate(1120,620)" opacity=".95"><circle cx="0" cy="0" r="21" fill="#8A9A6A" /><circle cx="12.6" cy="6.3" r="14.280000000000001" fill="#8A9A6A" /><circle cx="-11.55" cy="7.35" r="12.6" fill="#8A9A6A" /></g><g transform="translate(826,404) rotate(0) scale(1.0)" filter="url(#softShadow)">
    <rect x="-54.0" y="-26.0" width="108" height="52" rx="15.6"
          fill="#2F6FB2" stroke="#2A2D33" stroke-width="2.5"/>
    <path d="M-45.0 -23.0 h90 a6 6 0 0 1 6 6 v34 a6 6 0 0 1 -6 6 h-90 z"
          fill="#000" opacity="0.06"/>
    <path d="M10.8 -20.0 L32.4 -15.0 L32.4 15.0 L10.8 20.0 Z"
          fill="url(#glass)"/>
    <path d="M-32.4 -17.0 L-12.959999999999999 -20.0 L-12.959999999999999 20.0 L-32.4 17.0 Z"
          fill="url(#glass)" opacity="0.85"/>
    <rect x="-10.8" y="-19.0" width="21.6" height="38" rx="5"
          fill="#FFFFFF" opacity="0.10"/><rect x="-8.64" y="-22.0" width="21.6" height="5" rx="2.5" fill="url(#glass)"/><rect x="-8.64" y="17.0" width="21.6" height="5" rx="2.5" fill="url(#glass)"/><rect x="10.8" y="-32.0" width="13" height="7" rx="3" fill="#2A2D33"/><rect x="10.8" y="25.0" width="13" height="7" rx="3" fill="#2A2D33"/><rect x="46.0" y="-21.0" width="7" height="12" rx="3" fill="#FFF3C4"/><rect x="46.0" y="9.0" width="7" height="12" rx="3" fill="#FFF3C4"/><rect x="-53.0" y="-21.0" width="7" height="12" rx="3" fill="#FF3B30"/><rect x="-53.0" y="9.0" width="7" height="12" rx="3" fill="#FF3B30"/><circle cx="-50.0" cy="-15.0" r="15" fill="url(#glowR)"/><circle cx="-50.0" cy="15.0" r="15" fill="url(#glowR)"/></g><g transform="translate(958,404) rotate(0) scale(1.0)" filter="url(#softShadow)">
    <rect x="-54.0" y="-26.0" width="108" height="52" rx="15.6"
          fill="#E8E9EB" stroke="#2A2D33" stroke-width="2.5"/>
    <path d="M-45.0 -23.0 h90 a6 6 0 0 1 6 6 v34 a6 6 0 0 1 -6 6 h-90 z"
          fill="#000" opacity="0.06"/>
    <path d="M10.8 -20.0 L32.4 -15.0 L32.4 15.0 L10.8 20.0 Z"
          fill="url(#glass)"/>
    <path d="M-32.4 -17.0 L-12.959999999999999 -20.0 L-12.959999999999999 20.0 L-32.4 17.0 Z"
          fill="url(#glass)" opacity="0.85"/>
    <rect x="-10.8" y="-19.0" width="21.6" height="38" rx="5"
          fill="#FFFFFF" opacity="0.10"/><rect x="-8.64" y="-22.0" width="21.6" height="5" rx="2.5" fill="url(#glass)"/><rect x="-8.64" y="17.0" width="21.6" height="5" rx="2.5" fill="url(#glass)"/><rect x="10.8" y="-32.0" width="13" height="7" rx="3" fill="#2A2D33"/><rect x="10.8" y="25.0" width="13" height="7" rx="3" fill="#2A2D33"/><rect x="46.0" y="-21.0" width="7" height="12" rx="3" fill="#FFF3C4"/><rect x="46.0" y="9.0" width="7" height="12" rx="3" fill="#FFF3C4"/><rect x="-53.0" y="-21.0" width="7" height="12" rx="3" fill="#FF3B30"/><rect x="-53.0" y="9.0" width="7" height="12" rx="3" fill="#FF3B30"/><circle cx="-50.0" cy="-15.0" r="15" fill="url(#glowR)"/><circle cx="-50.0" cy="15.0" r="15" fill="url(#glowR)"/></g><g transform="translate(1092,404) rotate(0) scale(1.0)" filter="url(#softShadow)">
    <rect x="-59.0" y="-28.0" width="118" height="56" rx="16.8"
          fill="#3E8E63" stroke="#2A2D33" stroke-width="2.5"/>
    <path d="M-50.0 -25.0 h100 a6 6 0 0 1 6 6 v38 a6 6 0 0 1 -6 6 h-100 z"
          fill="#000" opacity="0.06"/>
    <path d="M11.8 -22.0 L35.4 -17.0 L35.4 17.0 L11.8 22.0 Z"
          fill="url(#glass)"/>
    <path d="M-35.4 -19.0 L-14.16 -22.0 L-14.16 22.0 L-35.4 19.0 Z"
          fill="url(#glass)" opacity="0.85"/>
    <rect x="-11.8" y="-21.0" width="23.6" height="42" rx="5"
          fill="#FFFFFF" opacity="0.10"/><rect x="-9.44" y="-24.0" width="23.6" height="5" rx="2.5" fill="url(#glass)"/><rect x="-9.44" y="19.0" width="23.6" height="5" rx="2.5" fill="url(#glass)"/><rect x="11.8" y="-34.0" width="13" height="7" rx="3" fill="#2A2D33"/><rect x="11.8" y="27.0" width="13" height="7" rx="3" fill="#2A2D33"/><rect x="51.0" y="-23.0" width="7" height="12" rx="3" fill="#FFF3C4"/><rect x="51.0" y="11.0" width="7" height="12" rx="3" fill="#FFF3C4"/><rect x="-58.0" y="-23.0" width="7" height="12" rx="3" fill="#FF3B30"/><rect x="-58.0" y="11.0" width="7" height="12" rx="3" fill="#FF3B30"/><circle cx="-55.0" cy="-17.0" r="15" fill="url(#glowR)"/><circle cx="-55.0" cy="17.0" r="15" fill="url(#glowR)"/></g><g transform="translate(468,316) rotate(180) scale(1.0)" filter="url(#softShadow)">
    <rect x="-54.0" y="-26.0" width="108" height="52" rx="15.6"
          fill="#9AA3AE" stroke="#2A2D33" stroke-width="2.5"/>
    <path d="M-45.0 -23.0 h90 a6 6 0 0 1 6 6 v34 a6 6 0 0 1 -6 6 h-90 z"
          fill="#000" opacity="0.06"/>
    <path d="M10.8 -20.0 L32.4 -15.0 L32.4 15.0 L10.8 20.0 Z"
          fill="url(#glass)"/>
    <path d="M-32.4 -17.0 L-12.959999999999999 -20.0 L-12.959999999999999 20.0 L-32.4 17.0 Z"
          fill="url(#glass)" opacity="0.85"/>
    <rect x="-10.8" y="-19.0" width="21.6" height="38" rx="5"
          fill="#FFFFFF" opacity="0.10"/><rect x="-8.64" y="-22.0" width="21.6" height="5" rx="2.5" fill="url(#glass)"/><rect x="-8.64" y="17.0" width="21.6" height="5" rx="2.5" fill="url(#glass)"/><rect x="10.8" y="-32.0" width="13" height="7" rx="3" fill="#2A2D33"/><rect x="10.8" y="25.0" width="13" height="7" rx="3" fill="#2A2D33"/><rect x="46.0" y="-21.0" width="7" height="12" rx="3" fill="#FFF3C4"/><rect x="46.0" y="9.0" width="7" height="12" rx="3" fill="#FFF3C4"/><rect x="-53.0" y="-21.0" width="7" height="12" rx="3" fill="#B3261E"/><rect x="-53.0" y="9.0" width="7" height="12" rx="3" fill="#B3261E"/></g><g transform="translate(330,404) rotate(0) scale(1.0)" filter="url(#softShadow)">
    <rect x="-54.0" y="-26.0" width="108" height="52" rx="15.6"
          fill="#C97A2B" stroke="#2A2D33" stroke-width="2.5"/>
    <path d="M-45.0 -23.0 h90 a6 6 0 0 1 6 6 v34 a6 6 0 0 1 -6 6 h-90 z"
          fill="#000" opacity="0.06"/>
    <path d="M10.8 -20.0 L32.4 -15.0 L32.4 15.0 L10.8 20.0 Z"
          fill="url(#glass)"/>
    <path d="M-32.4 -17.0 L-12.959999999999999 -20.0 L-12.959999999999999 20.0 L-32.4 17.0 Z"
          fill="url(#glass)" opacity="0.85"/>
    <rect x="-10.8" y="-19.0" width="21.6" height="38" rx="5"
          fill="#FFFFFF" opacity="0.10"/><rect x="-8.64" y="-22.0" width="21.6" height="5" rx="2.5" fill="url(#glass)"/><rect x="-8.64" y="17.0" width="21.6" height="5" rx="2.5" fill="url(#glass)"/><rect x="10.8" y="-32.0" width="13" height="7" rx="3" fill="#2A2D33"/><rect x="10.8" y="25.0" width="13" height="7" rx="3" fill="#2A2D33"/><rect x="46.0" y="-21.0" width="7" height="12" rx="3" fill="#FFF3C4"/><rect x="46.0" y="9.0" width="7" height="12" rx="3" fill="#FFF3C4"/><rect x="-53.0" y="-21.0" width="7" height="12" rx="3" fill="#B3261E"/><rect x="-53.0" y="9.0" width="7" height="12" rx="3" fill="#B3261E"/></g></svg>