<svg xmlns="http://www.w3.org/2000/svg" viewBox="0 0 1200 675" width="1200" height="675">
<defs>
<linearGradient id="sky" x1="0" y1="0" x2="0" y2="1">
  <stop offset="0" stop-color="#8EC5E8"/><stop offset="1" stop-color="#D9EDF7"/>
</linearGradient>
<linearGradient id="skyNight" x1="0" y1="0" x2="0" y2="1">
  <stop offset="0" stop-color="#0B1B33"/><stop offset="1" stop-color="#26405F"/>
</linearGradient>
<linearGradient id="skyDusk" x1="0" y1="0" x2="0" y2="1">
  <stop offset="0" stop-color="#2E4A7A"/><stop offset="0.6" stop-color="#C97A5A"/>
  <stop offset="1" stop-color="#F0C08A"/>
</linearGradient>
<linearGradient id="skyStorm" x1="0" y1="0" x2="0" y2="1">
  <stop offset="0" stop-color="#5A6472"/><stop offset="1" stop-color="#98A2AE"/>
</linearGradient>
<linearGradient id="roadPersp" x1="0" y1="0" x2="0" y2="1">
  <stop offset="0" stop-color="#5A5F69"/><stop offset="1" stop-color="#3C4048"/>
</linearGradient>
<linearGradient id="glass" x1="0" y1="0" x2="0" y2="1">
  <stop offset="0" stop-color="#9FC4DE"/><stop offset="1" stop-color="#6E93AE"/>
</linearGradient>
<radialGradient id="headBeam" cx="0.5" cy="0" r="1">
  <stop offset="0" stop-color="#FFF6C8" stop-opacity="0.85"/>
  <stop offset="1" stop-color="#FFF6C8" stop-opacity="0"/>
</radialGradient>
<radialGradient id="glowW"><stop offset="0" stop-color="#fff" stop-opacity=".95"/>
  <stop offset="1" stop-color="#fff" stop-opacity="0"/></radialGradient>
<radialGradient id="glowR"><stop offset="0" stop-color="#FF3B30" stop-opacity=".95"/>
  <stop offset="1" stop-color="#FF3B30" stop-opacity="0"/></radialGradient>
<radialGradient id="glowB"><stop offset="0" stop-color="#3B82F6" stop-opacity=".95"/>
  <stop offset="1" stop-color="#3B82F6" stop-opacity="0"/></radialGradient>
<radialGradient id="glowA"><stop offset="0" stop-color="#FFB020" stop-opacity=".95"/>
  <stop offset="1" stop-color="#FFB020" stop-opacity="0"/></radialGradient>
<filter id="softShadow" x="-30%" y="-30%" width="160%" height="160%">
  <feDropShadow dx="0" dy="5" stdDeviation="6" flood-color="#000" flood-opacity="0.28"/>
</filter>
<filter id="tinyShadow" x="-30%" y="-30%" width="160%" height="160%">
  <feDropShadow dx="0" dy="2" stdDeviation="2.5" flood-color="#000" flood-opacity="0.3"/>
</filter>
<filter id="blurLight"><feGaussianBlur stdDeviation="10"/></filter>
<filter id="fogFilter"><feGaussianBlur stdDeviation="7"/></filter>
<pattern id="grassTex" width="26" height="26" patternUnits="userSpaceOnUse">
  <rect width="26" height="26" fill="#9CB380"/>
  <path d="M4 20 l3 -8 M13 24 l2 -9 M21 19 l3 -7" stroke="#8AA271" stroke-width="2"
        stroke-linecap="round" opacity=".7"/>
</pattern>
<pattern id="asphaltTex" width="8" height="8" patternUnits="userSpaceOnUse">
  <rect width="8" height="8" fill="#4A4E57"/>
  <circle cx="2" cy="3" r="0.7" fill="#565A63"/><circle cx="6" cy="6" r="0.6" fill="#41454D"/>
</pattern>
</defs><rect x="0" y="0" width="1200" height="675" rx="0" fill="url(#skyDusk)" /><rect x="0" y="300" width="1200" height="120" rx="0" fill="#5A5064" /><rect x="0" y="352" width="1200" height="323" rx="0" fill="#6A6270" /><rect x="-10" y="116" width="268" height="240" rx="0" fill="#4E4657" /><rect x="-16" y="104" width="280" height="14" rx="3" fill="#3C3646" /><rect x="6" y="136" width="24" height="28" rx="3" fill="#8FB3CB" /><rect x="54" y="136" width="24" height="28" rx="3" fill="#8FB3CB" /><rect x="102" y="136" width="24" height="28" rx="3" fill="#8FB3CB" /><rect x="150" y="136" width="24" height="28" rx="3" fill="#8FB3CB" /><rect x="198" y="136" width="24" height="28" rx="3" fill="#8FB3CB" /><rect x="6" y="188" width="24" height="28" rx="3" fill="#8FB3CB" /><rect x="54" y="188" width="24" height="28" rx="3" fill="#8FB3CB" /><rect x="102" y="188" width="24" height="28" rx="3" fill="#8FB3CB" /><rect x="150" y="188" width="24" height="28" rx="3" fill="#8FB3CB" /><rect x="198" y="188" width="24" height="28" rx="3" fill="#8FB3CB" /><rect x="6" y="240" width="24" height="28" rx="3" fill="#8FB3CB" /><rect x="54" y="240" width="24" height="28" rx="3" fill="#8FB3CB" /><rect x="102" y="240" width="24" height="28" rx="3" fill="#8FB3CB" /><rect x="150" y="240" width="24" height="28" rx="3" fill="#8FB3CB" /><rect x="198" y="240" width="24" height="28" rx="3" fill="#8FB3CB" /><rect x="6" y="292" width="24" height="28" rx="3" fill="#8FB3CB" /><rect x="54" y="292" width="24" height="28" rx="3" fill="#8FB3CB" /><rect x="102" y="292" width="24" height="28" rx="3" fill="#8FB3CB" /><rect x="150" y="292" width="24" height="28" rx="3" fill="#8FB3CB" /><rect x="198" y="292" width="24" height="28" rx="3" fill="#8FB3CB" /><rect x="276" y="168" width="190" height="188" rx="0" fill="#5A5163" /><rect x="270" y="156" width="202" height="14" rx="3" fill="#443E4E" /><rect x="292" y="188" width="24" height="28" rx="3" fill="#8FB3CB" /><rect x="340" y="188" width="24" height="28" rx="3" fill="#8FB3CB" /><rect x="388" y="188" width="24" height="28" rx="3" fill="#8FB3CB" /><rect x="292" y="240" width="24" height="28" rx="3" fill="#8FB3CB" /><rect x="340" y="240" width="24" height="28" rx="3" fill="#8FB3CB" /><rect x="388" y="240" width="24" height="28" rx="3" fill="#8FB3CB" /><rect x="292" y="292" width="24" height="28" rx="3" fill="#8FB3CB" /><rect x="340" y="292" width="24" height="28" rx="3" fill="#8FB3CB" /><rect x="388" y="292" width="24" height="28" rx="3" fill="#8FB3CB" /><rect x="944" y="132" width="276" height="226" rx="0" fill="#4A4353" /><rect x="938" y="120" width="288" height="14" rx="3" fill="#393343" /><rect x="960" y="152" width="24" height="28" rx="3" fill="#8FB3CB" /><rect x="1008" y="152" width="24" height="28" rx="3" fill="#8FB3CB" /><rect x="1056" y="152" width="24" height="28" rx="3" fill="#8FB3CB" /><rect x="1104" y="152" width="24" height="28" rx="3" fill="#8FB3CB" /><rect x="1152" y="152" width="24" height="28" rx="3" fill="#8FB3CB" /><rect x="960" y="204" width="24" height="28" rx="3" fill="#8FB3CB" /><rect x="1008" y="204" width="24" height="28" rx="3" fill="#8FB3CB" /><rect x="1056" y="204" width="24" height="28" rx="3" fill="#8FB3CB" /><rect x="1104" y="204" width="24" height="28" rx="3" fill="#8FB3CB" /><rect x="1152" y="204" width="24" height="28" rx="3" fill="#8FB3CB" /><rect x="960" y="256" width="24" height="28" rx="3" fill="#8FB3CB" /><rect x="1008" y="256" width="24" height="28" rx="3" fill="#8FB3CB" /><rect x="1056" y="256" width="24" height="28" rx="3" fill="#8FB3CB" /><rect x="1104" y="256" width="24" height="28" rx="3" fill="#8FB3CB" /><rect x="1152" y="256" width="24" height="28" rx="3" fill="#8FB3CB" /><rect x="960" y="308" width="24" height="28" rx="3" fill="#8FB3CB" /><rect x="1008" y="308" width="24" height="28" rx="3" fill="#8FB3CB" /><rect x="1056" y="308" width="24" height="28" rx="3" fill="#8FB3CB" /><rect x="1104" y="308" width="24" height="28" rx="3" fill="#8FB3CB" /><rect x="1152" y="308" width="24" height="28" rx="3" fill="#8FB3CB" /><rect x="766" y="190" width="168" height="166" rx="0" fill="#564E60" /><rect x="760" y="178" width="180" height="14" rx="3" fill="#413B4B" /><rect x="782" y="210" width="24" height="28" rx="3" fill="#8FB3CB" /><rect x="830" y="210" width="24" height="28" rx="3" fill="#8FB3CB" /><rect x="878" y="210" width="24" height="28" rx="3" fill="#8FB3CB" /><rect x="782" y="262" width="24" height="28" rx="3" fill="#8FB3CB" /><rect x="830" y="262" width="24" height="28" rx="3" fill="#8FB3CB" /><rect x="878" y="262" width="24" height="28" rx="3" fill="#8FB3CB" /><rect x="782" y="314" width="24" height="28" rx="3" fill="#8FB3CB" /><rect x="830" y="314" width="24" height="28" rx="3" fill="#8FB3CB" /><rect x="878" y="314" width="24" height="28" rx="3" fill="#8FB3CB" /><path d="M-300.0 705 L566.0 352 L634.0 352 L1500.0 705 Z" fill="#8C8F96" /><path d="M-140.0 705 L574.0 352 L626.0 352 L1340.0 705 Z" fill="url(#roadPersp)" /><path d="M600.0 703.2146492276596 L600.0 697.6074694913917" fill="none" stroke="#F5F7FA" stroke-width="10.951446551233804" stroke-linecap="butt"/><path d="M600.0 692.3177159551261 L600.0 686.4559644591761" fill="none" stroke="#F5F7FA" stroke-width="10.65509935741986" stroke-linecap="butt"/><path d="M600.0 680.9162710760702 L600.0 674.7657746668032" fill="none" stroke="#F5F7FA" stroke-width="10.34503173464667" stroke-linecap="butt"/><path d="M600.0 668.941102246845 L600.0 662.4594975097459" fill="none" stroke="#F5F7FA" stroke-width="10.019361420877372" stroke-linecap="butt"/><path d="M600.0 656.3060002291289 L600.0 649.439728954107" fill="none" stroke="#F5F7FA" stroke-width="9.675743915579709" stroke-linecap="butt"/><path d="M600.0 642.9013493713817 L600.0 635.5810817974283" fill="none" stroke="#F5F7FA" stroke-width="9.311198169873268" stroke-linecap="butt"/><path d="M600.0 628.5842562267339 L600.0 620.7176093524592" fill="none" stroke="#F5F7FA" stroke-width="8.921838129678882" stroke-linecap="butt"/><path d="M600.0 613.1626283015291 L600.0 604.6219401890124" fill="none" stroke="#F5F7FA" stroke-width="8.502439749843289" stroke-linecap="butt"/><path d="M600.0 596.3679732278908 L600.0 586.9683235390899" fill="none" stroke="#F5F7FA" stroke-width="8.045701254922813" stroke-linecap="butt"/><path d="M600.0 577.8053560948407 L600.0 567.2613235890632" fill="none" stroke="#F5F7FA" stroke-width="7.540882205412098" stroke-linecap="butt"/><path d="M600.0 556.8517321672246 L600.0 544.6809896209971" fill="none" stroke="#F5F7FA" stroke-width="6.971038608513755" stroke-linecap="butt"/><path d="M600.0 532.4180958782271 L600.0 517.6821871143336" fill="none" stroke="#F5F7FA" stroke-width="6.306554448812975" stroke-linecap="butt"/><path d="M600.0 502.25524034641717 L600.0 482.59698208720073" fill="none" stroke="#F5F7FA" stroke-width="5.4862614938402405" stroke-linecap="butt"/><path d="M600.0 459.8580905236715 L600.0 423.4407260937121" fill="none" stroke="#F5F7FA" stroke-width="4.333251187046023" stroke-linecap="butt"/><path d="M-122.24000000000001 705 L574.624 352" fill="none" stroke="#F5F7FA" stroke-width="6" /><path d="M1322.24 705 L625.376 352" fill="none" stroke="#F5F7FA" stroke-width="6" /><rect x="126" y="236" width="13" height="330" rx="5" fill="#3A3644" /><rect x="132" y="228" width="82" height="13" rx="5" fill="#3A3644" /><circle cx="216" cy="240" r="15" fill="#FFF3C4" opacity=".92"/><circle cx="216" cy="240" r="44" fill="url(#glowA)" opacity=".5"/><g transform="translate(1052,530.7136) scale(0.52)" filter="url(#softShadow)">
    <path d="M-98.0 43.52 L-98.0 -5.12 C-98.0 -35.84 -64.68 -61.44
      -54.88 -61.44 L54.88 -61.44 C64.68 -61.44 98.0 -35.84
      98.0 -5.12 L98.0 43.52 Z" fill="#3D4450" stroke="#2A2D33" stroke-width="3"/>
    <path d="M-54.88 -53.76 L54.88 -53.76 C60.76 -53.76 76.44 -12.8
      76.44 -10.24 L-76.44 -10.24 C-76.44 -12.8 -60.76 -53.76
      -54.88 -53.76 Z" fill="url(#glass)"/>
    <rect x="-82.32" y="-2.56" width="39.2" height="19.2" rx="6" fill="#FFF3C4"/>
    <rect x="43.12" y="-2.56" width="39.2" height="19.2" rx="6" fill="#FFF3C4"/>
    <rect x="-50.96" y="17.92" width="101.92" height="12.8" rx="4" fill="#22262C"/>
    <rect x="-23.52" y="28.16" width="47.04" height="17.92" rx="3" fill="#F5F7FA" stroke="#9AA0A8" stroke-width="2"/></g><g transform="translate(972,470.8512) scale(0.34)" filter="url(#softShadow)">
    <path d="M-98.0 43.52 L-98.0 -5.12 C-98.0 -35.84 -64.68 -61.44
      -54.88 -61.44 L54.88 -61.44 C64.68 -61.44 98.0 -35.84
      98.0 -5.12 L98.0 43.52 Z" fill="#8A5A46" stroke="#2A2D33" stroke-width="3"/>
    <path d="M-54.88 -53.76 L54.88 -53.76 C60.76 -53.76 76.44 -12.8
      76.44 -10.24 L-76.44 -10.24 C-76.44 -12.8 -60.76 -53.76
      -54.88 -53.76 Z" fill="url(#glass)"/>
    <rect x="-82.32" y="-2.56" width="39.2" height="19.2" rx="6" fill="#FFF3C4"/>
    <rect x="43.12" y="-2.56" width="39.2" height="19.2" rx="6" fill="#FFF3C4"/>
    <rect x="-50.96" y="17.92" width="101.92" height="12.8" rx="4" fill="#22262C"/>
    <rect x="-23.52" y="28.16" width="47.04" height="17.92" rx="3" fill="#F5F7FA" stroke="#9AA0A8" stroke-width="2"/></g><g transform="translate(467.6628895184136,425.28064362606233) scale(0.7940226628895185)" filter="url(#softShadow)">
    <path d="M-98.0 43.52 L-98.0 -5.12 C-98.0 -35.84 -64.68 -61.44
      -54.88 -61.44 L54.88 -61.44 C64.68 -61.44 98.0 -35.84
      98.0 -5.12 L98.0 43.52 Z" fill="#B23A3A" stroke="#2A2D33" stroke-width="3"/>
    <path d="M-54.88 -53.76 L54.88 -53.76 C60.76 -53.76 76.44 -12.8
      76.44 -10.24 L-76.44 -10.24 C-76.44 -12.8 -60.76 -53.76
      -54.88 -53.76 Z" fill="url(#glass)"/>
    <rect x="-82.32" y="-2.56" width="39.2" height="19.2" rx="6" fill="#FFF3C4"/>
    <rect x="43.12" y="-2.56" width="39.2" height="19.2" rx="6" fill="#FFF3C4"/>
    <rect x="-50.96" y="17.92" width="101.92" height="12.8" rx="4" fill="#22262C"/>
    <rect x="-23.52" y="28.16" width="47.04" height="17.92" rx="3" fill="#F5F7FA" stroke="#9AA0A8" stroke-width="2"/><ellipse cx="-62.72" cy="6.4" rx="58.8" ry="33.28" fill="url(#glowW)"/><ellipse cx="62.72" cy="6.4" rx="58.8" ry="33.28" fill="url(#glowW)"/></g><g transform="translate(685.8158640226629,395.00110322946176) scale(0.5148951841359775)" filter="url(#softShadow)">
    <path d="M-98.0 43.52 L-98.0 -5.12 C-98.0 -35.84 -64.68 -61.44
      -54.88 -61.44 L54.88 -61.44 C64.68 -61.44 98.0 -35.84
      98.0 -5.12 L98.0 43.52 Z" fill="#E8E9EB" stroke="#2A2D33" stroke-width="3"/>
    <path d="M-54.88 -53.76 L54.88 -53.76 C60.76 -53.76 76.44 -12.8
      76.44 -10.24 L-76.44 -10.24 C-76.44 -12.8 -60.76 -53.76
      -54.88 -53.76 Z" fill="url(#glass)"/>
    <rect x="-82.32" y="-2.56" width="39.2" height="19.2" rx="6" fill="#FFF3C4"/>
    <rect x="43.12" y="-2.56" width="39.2" height="19.2" rx="6" fill="#FFF3C4"/>
    <rect x="-50.96" y="17.92" width="101.92" height="12.8" rx="4" fill="#22262C"/>
    <rect x="-23.52" y="28.16" width="47.04" height="17.92" rx="3" fill="#F5F7FA" stroke="#9AA0A8" stroke-width="2"/><ellipse cx="-62.72" cy="6.4" rx="58.8" ry="33.28" fill="url(#glowW)"/><ellipse cx="62.72" cy="6.4" rx="58.8" ry="33.28" fill="url(#glowW)"/></g><g transform="translate(550.5920679886685,371.30407161473084) scale(0.2964475920679888)" filter="url(#softShadow)">
    <path d="M-98.0 43.52 L-98.0 -5.12 C-98.0 -35.84 -64.68 -61.44
      -54.88 -61.44 L54.88 -61.44 C64.68 -61.44 98.0 -35.84
      98.0 -5.12 L98.0 43.52 Z" fill="#2F6FB2" stroke="#2A2D33" stroke-width="3"/>
    <path d="M-54.88 -53.76 L54.88 -53.76 C60.76 -53.76 76.44 -12.8
      76.44 -10.24 L-76.44 -10.24 C-76.44 -12.8 -60.76 -53.76
      -54.88 -53.76 Z" fill="url(#glass)"/>
    <rect x="-82.32" y="-2.56" width="39.2" height="19.2" rx="6" fill="#FFF3C4"/>
    <rect x="43.12" y="-2.56" width="39.2" height="19.2" rx="6" fill="#FFF3C4"/>
    <rect x="-50.96" y="17.92" width="101.92" height="12.8" rx="4" fill="#22262C"/>
    <rect x="-23.52" y="28.16" width="47.04" height="17.92" rx="3" fill="#F5F7FA" stroke="#9AA0A8" stroke-width="2"/><ellipse cx="-62.72" cy="6.4" rx="58.8" ry="33.28" fill="url(#glowW)"/><ellipse cx="62.72" cy="6.4" rx="58.8" ry="33.28" fill="url(#glowW)"/></g><rect x="1102.0" y="424" width="12" height="104" rx="6.0" fill="#6E747E" /><g transform="translate(1108,386)" filter="url(#softShadow)"><rect x="-79.0" y="-41.0" width="158" height="82" rx="8" fill="#C8102E" /><rect x="-72.0" y="-34.0" width="144" height="68" rx="5" fill="none" stroke="#FFFFFF" stroke-width="5" /><text x="0" y="-13.940000000000001" font-family="'Helvetica Neue', Helvetica, Arial, sans-serif" font-size="22.14" font-weight="700" fill="#FFFFFF" text-anchor="middle" dominant-baseline="central" >WRONG</text><text x="0" y="16.400000000000002" font-family="'Helvetica Neue', Helvetica, Arial, sans-serif" font-size="22.14" font-weight="700" fill="#FFFFFF" text-anchor="middle" dominant-baseline="central" >WAY</text></g><path d="M-40 685 L-40 652 C240 574 960 574 1240 652 L1240 685 Z" fill="#243042" /><path d="M-40 656 C240 578 960 578 1240 656" fill="none" stroke="#FFFFFF" stroke-width="3" opacity=".14"/></svg>