<svg xmlns="http://www.w3.org/2000/svg" viewBox="0 0 1200 675" width="1200" height="675">
<defs>
<linearGradient id="sky" x1="0" y1="0" x2="0" y2="1">
  <stop offset="0" stop-color="#8EC5E8"/><stop offset="1" stop-color="#D9EDF7"/>
</linearGradient>
<linearGradient id="skyNight" x1="0" y1="0" x2="0" y2="1">
  <stop offset="0" stop-color="#0B1B33"/><stop offset="1" stop-color="#26405F"/>
</linearGradient>
<linearGradient id="skyDusk" x1="0" y1="0" x2="0" y2="1">
  <stop offset="0" stop-color="#2E4A7A"/><stop offset="0.6" stop-color="#C97A5A"/>
  <stop offset="1" stop-color="#F0C08A"/>
</linearGradient>
<linearGradient id="skyStorm" x1="0" y1="0" x2="0" y2="1">
  <stop offset="0" stop-color="#5A6472"/><stop offset="1" stop-color="#98A2AE"/>
</linearGradient>
<linearGradient id="roadPersp" x1="0" y1="0" x2="0" y2="1">
  <stop offset="0" stop-color="#5A5F69"/><stop offset="1" stop-color="#3C4048"/>
</linearGradient>
<linearGradient id="glass" x1="0" y1="0" x2="0" y2="1">
  <stop offset="0" stop-color="#9FC4DE"/><stop offset="1" stop-color="#6E93AE"/>
</linearGradient>
<radialGradient id="headBeam" cx="0.5" cy="0" r="1">
  <stop offset="0" stop-color="#FFF6C8" stop-opacity="0.85"/>
  <stop offset="1" stop-color="#FFF6C8" stop-opacity="0"/>
</radialGradient>
<radialGradient id="glowW"><stop offset="0" stop-color="#fff" stop-opacity=".95"/>
  <stop offset="1" stop-color="#fff" stop-opacity="0"/></radialGradient>
<radialGradient id="glowR"><stop offset="0" stop-color="#FF3B30" stop-opacity=".95"/>
  <stop offset="1" stop-color="#FF3B30" stop-opacity="0"/></radialGradient>
<radialGradient id="glowB"><stop offset="0" stop-color="#3B82F6" stop-opacity=".95"/>
  <stop offset="1" stop-color="#3B82F6" stop-opacity="0"/></radialGradient>
<radialGradient id="glowA"><stop offset="0" stop-color="#FFB020" stop-opacity=".95"/>
  <stop offset="1" stop-color="#FFB020" stop-opacity="0"/></radialGradient>
<filter id="softShadow" x="-30%" y="-30%" width="160%" height="160%">
  <feDropShadow dx="0" dy="5" stdDeviation="6" flood-color="#000" flood-opacity="0.28"/>
</filter>
<filter id="tinyShadow" x="-30%" y="-30%" width="160%" height="160%">
  <feDropShadow dx="0" dy="2" stdDeviation="2.5" flood-color="#000" flood-opacity="0.3"/>
</filter>
<filter id="blurLight"><feGaussianBlur stdDeviation="10"/></filter>
<filter id="fogFilter"><feGaussianBlur stdDeviation="7"/></filter>
<pattern id="grassTex" width="26" height="26" patternUnits="userSpaceOnUse">
  <rect width="26" height="26" fill="#9CB380"/>
  <path d="M4 20 l3 -8 M13 24 l2 -9 M21 19 l3 -7" stroke="#8AA271" stroke-width="2"
        stroke-linecap="round" opacity=".7"/>
</pattern>
<pattern id="asphaltTex" width="8" height="8" patternUnits="userSpaceOnUse">
  <rect width="8" height="8" fill="#4A4E57"/>
  <circle cx="2" cy="3" r="0.7" fill="#565A63"/><circle cx="6" cy="6" r="0.6" fill="#41454D"/>
</pattern>
</defs><rect x="0" y="0" width="1200" height="675" rx="0" fill="#B9C39F" /><rect x="-20" y="84" width="1240" height="44" rx="0" fill="#C7CAD0" /><path d="M-20 125 H1220" fill="none" stroke="#A7ABB2" stroke-width="3" /><rect x="-20" y="472" width="1240" height="44" rx="0" fill="#C7CAD0" /><path d="M-20 513 H1220" fill="none" stroke="#A7ABB2" stroke-width="3" /><rect x="518" y="-20" width="44" height="715" rx="0" fill="#C7CAD0" /><path d="M559 -20 V695" fill="none" stroke="#A7ABB2" stroke-width="3" /><rect x="750" y="-20" width="44" height="715" rx="0" fill="#C7CAD0" /><path d="M791 -20 V695" fill="none" stroke="#A7ABB2" stroke-width="3" /><rect x="-20" y="128" width="1240" height="344" rx="0" fill="#8C8F96" /><rect x="-20" y="144" width="1240" height="312" rx="0" fill="url(#asphaltTex)" /><path d="M-20 222 H1220" stroke="#F5F7FA" stroke-width="6" stroke-dasharray="52 48" fill="none"/><path d="M-20 378 H1220" stroke="#F5F7FA" stroke-width="6" stroke-dasharray="52 48" fill="none"/><path d="M-20 294 H1220" fill="none" stroke="#F2C037" stroke-width="6" /><path d="M-20 306 H1220" fill="none" stroke="#F2C037" stroke-width="6" /><path d="M-20 148 H1220" fill="none" stroke="#F5F7FA" stroke-width="5" /><path d="M-20 452 H1220" fill="none" stroke="#F5F7FA" stroke-width="5" /><rect x="562" y="-20" width="188" height="715" rx="0" fill="#8C8F96" /><rect x="578" y="-20" width="156" height="715" rx="0" fill="url(#asphaltTex)" /><path d="M656 -20 V695" stroke="#F2C037" stroke-width="6" stroke-dasharray="44 40" fill="none"/><path d="M582 -20 V695" fill="none" stroke="#F5F7FA" stroke-width="5" /><path d="M730 -20 V695" fill="none" stroke="#F5F7FA" stroke-width="5" /><rect x="578" y="144" width="156" height="312" rx="0" fill="url(#asphaltTex)" /><rect x="52" y="30" width="244" height="102" rx="4" fill="#CDC2AE" filter="url(#softShadow)"/><rect x="62" y="40" width="224" height="82" rx="3" fill="#BCB29E" /><rect x="100.80000000000001" y="56.519999999999996" width="30" height="19" rx="3" fill="#A79C89" /><rect x="203.28" y="87.12" width="22" height="15" rx="3" fill="#A79C89" /><rect x="812" y="22" width="288" height="106" rx="4" fill="#CDC2AE" filter="url(#softShadow)"/><rect x="822" y="32" width="268" height="86" rx="3" fill="#BCB29E" /><rect x="869.6" y="49.56" width="30" height="19" rx="3" fill="#A79C89" /><rect x="990.56" y="81.36000000000001" width="22" height="15" rx="3" fill="#A79C89" /><rect x="88" y="520" width="250" height="120" rx="4" fill="#CDC2AE" filter="url(#softShadow)"/><rect x="98" y="530" width="230" height="100" rx="3" fill="#BCB29E" /><rect x="138.0" y="551.2" width="30" height="19" rx="3" fill="#A79C89" /><rect x="243.0" y="587.2" width="22" height="15" rx="3" fill="#A79C89" /><rect x="824" y="528" width="262" height="112" rx="4" fill="#CDC2AE" filter="url(#softShadow)"/><rect x="834" y="538" width="242" height="92" rx="3" fill="#BCB29E" /><rect x="876.4" y="557.12" width="30" height="19" rx="3" fill="#A79C89" /><rect x="986.44" y="590.72" width="22" height="15" rx="3" fill="#A79C89" /><rect x="750" y="530" width="13" height="118" rx="0" fill="#D32F2F" stroke="#8A8D93" stroke-width="1.5" /><g transform="translate(546,512) scale(1.0)" filter="url(#tinyShadow)"><rect x="-9" y="-34" width="18" height="34" rx="4" fill="#D9342B"/><circle cx="0" cy="-36" r="9" fill="#D9342B"/><rect x="-16" y="-24" width="32" height="7" rx="3" fill="#B92B22"/><rect x="-14" y="-2" width="28" height="6" rx="2" fill="#B92B22"/></g><circle cx="372" cy="154" r="15" fill="#7C8F63" /><circle cx="364.5" cy="159.25" r="10.200000000000001" fill="#7C8F63" /><circle cx="380.25" cy="158.5" r="9.0" fill="#8B9C72" /><circle cx="760" cy="146" r="15" fill="#7C8F63" /><circle cx="752.5" cy="151.25" r="10.200000000000001" fill="#7C8F63" /><circle cx="768.25" cy="150.5" r="9.0" fill="#8B9C72" /><circle cx="368" cy="494" r="15" fill="#7C8F63" /><circle cx="360.5" cy="499.25" r="10.200000000000001" fill="#7C8F63" /><circle cx="376.25" cy="498.5" r="9.0" fill="#8B9C72" /><circle cx="784" cy="500" r="15" fill="#7C8F63" /><circle cx="776.5" cy="505.25" r="10.200000000000001" fill="#7C8F63" /><circle cx="792.25" cy="504.5" r="9.0" fill="#8B9C72" /><circle cx="1150" cy="160" r="15" fill="#7C8F63" /><circle cx="1142.5" cy="165.25" r="10.200000000000001" fill="#7C8F63" /><circle cx="1158.25" cy="164.5" r="9.0" fill="#8B9C72" /><rect x="584" y="163.5" width="54" height="17" rx="0" fill="#F5F7FA" opacity=".95"/><rect x="584" y="195.5" width="54" height="17" rx="0" fill="#F5F7FA" opacity=".95"/><rect x="584" y="227.5" width="54" height="17" rx="0" fill="#F5F7FA" opacity=".95"/><rect x="584" y="259.5" width="54" height="17" rx="0" fill="#F5F7FA" opacity=".95"/><rect x="584" y="291.5" width="54" height="17" rx="0" fill="#F5F7FA" opacity=".95"/><rect x="584" y="323.5" width="54" height="17" rx="0" fill="#F5F7FA" opacity=".95"/><rect x="584" y="355.5" width="54" height="17" rx="0" fill="#F5F7FA" opacity=".95"/><rect x="584" y="387.5" width="54" height="17" rx="0" fill="#F5F7FA" opacity=".95"/><rect x="584" y="419.5" width="54" height="17" rx="0" fill="#F5F7FA" opacity=".95"/><rect x="674" y="163.5" width="54" height="17" rx="0" fill="#F5F7FA" opacity=".95"/><rect x="674" y="195.5" width="54" height="17" rx="0" fill="#F5F7FA" opacity=".95"/><rect x="674" y="227.5" width="54" height="17" rx="0" fill="#F5F7FA" opacity=".95"/><rect x="674" y="259.5" width="54" height="17" rx="0" fill="#F5F7FA" opacity=".95"/><rect x="674" y="291.5" width="54" height="17" rx="0" fill="#F5F7FA" opacity=".95"/><rect x="674" y="323.5" width="54" height="17" rx="0" fill="#F5F7FA" opacity=".95"/><rect x="674" y="355.5" width="54" height="17" rx="0" fill="#F5F7FA" opacity=".95"/><rect x="674" y="387.5" width="54" height="17" rx="0" fill="#F5F7FA" opacity=".95"/><rect x="674" y="419.5" width="54" height="17" rx="0" fill="#F5F7FA" opacity=".95"/><rect x="599.5" y="150" width="17" height="54" rx="0" fill="#F5F7FA" opacity=".95"/><rect x="631.5" y="150" width="17" height="54" rx="0" fill="#F5F7FA" opacity=".95"/><rect x="663.5" y="150" width="17" height="54" rx="0" fill="#F5F7FA" opacity=".95"/><rect x="695.5" y="150" width="17" height="54" rx="0" fill="#F5F7FA" opacity=".95"/><rect x="599.5" y="396" width="17" height="54" rx="0" fill="#F5F7FA" opacity=".95"/><rect x="631.5" y="396" width="17" height="54" rx="0" fill="#F5F7FA" opacity=".95"/><rect x="663.5" y="396" width="17" height="54" rx="0" fill="#F5F7FA" opacity=".95"/><rect x="695.5" y="396" width="17" height="54" rx="0" fill="#F5F7FA" opacity=".95"/><g transform="translate(316,339.0) rotate(90)"><g transform="translate(0,0) scale(0.78)"><path d="M-6,46 L-6,-2 C-6,-16 -16,-22 -30,-22 L-30,-34 L-58,-14 L-30,6 L-30,-8 C-20,-8 -20,-4 -20,4 L-20,46 Z" fill="#F5F7FA" opacity=".95"/></g></g><g transform="translate(316,417.0) rotate(90)"><g transform="translate(0,0) scale(0.78)"><path d="M0,-46 L18,-14 L7,-14 L7,44 L-7,44 L-7,-14 L-18,-14 Z" fill="#F5F7FA" opacity=".95"/></g></g><g transform="translate(536,112)" filter="url(#softShadow)"><circle cx="0" cy="0" r="50.0" fill="#FFFFFF" stroke="#111418" stroke-width="3.5000000000000004" /><circle cx="0" cy="0" r="40.0" fill="none" stroke="#C8102E" stroke-width="8.5" /><g transform="scale(0.7) translate(0,-6)"><path d="M-20,34 L-20,-4 C-20,-24 20,-24 20,-4 L20,16 L34,16 L14,42 L-6,16 L6,16 L6,-4 C6,-12 -6,-12 -6,-4 L-6,34 Z" fill="#111418" /></g><path d="M-30.0 30.0 L30.0 -30.0" fill="none" stroke="#C8102E" stroke-width="8.5" /></g><g transform="translate(430,339.0) rotate(0) scale(1.0)" filter="url(#softShadow)">
    <rect x="-54.0" y="-26.0" width="108" height="52" rx="15.6"
          fill="#C97A2B" stroke="#2A2D33" stroke-width="2.5"/>
    <path d="M-45.0 -23.0 h90 a6 6 0 0 1 6 6 v34 a6 6 0 0 1 -6 6 h-90 z"
          fill="#000" opacity="0.06"/>
    <path d="M10.8 -20.0 L32.4 -15.0 L32.4 15.0 L10.8 20.0 Z"
          fill="url(#glass)"/>
    <path d="M-32.4 -17.0 L-12.959999999999999 -20.0 L-12.959999999999999 20.0 L-32.4 17.0 Z"
          fill="url(#glass)" opacity="0.85"/>
    <rect x="-10.8" y="-19.0" width="21.6" height="38" rx="5"
          fill="#FFFFFF" opacity="0.10"/><rect x="-8.64" y="-22.0" width="21.6" height="5" rx="2.5" fill="url(#glass)"/><rect x="-8.64" y="17.0" width="21.6" height="5" rx="2.5" fill="url(#glass)"/><rect x="10.8" y="-32.0" width="13" height="7" rx="3" fill="#2A2D33"/><rect x="10.8" y="25.0" width="13" height="7" rx="3" fill="#2A2D33"/><rect x="46.0" y="-21.0" width="7" height="12" rx="3" fill="#FFF3C4"/><rect x="46.0" y="9.0" width="7" height="12" rx="3" fill="#FFF3C4"/><rect x="-53.0" y="-21.0" width="7" height="12" rx="3" fill="#B3261E"/><rect x="-53.0" y="9.0" width="7" height="12" rx="3" fill="#B3261E"/><rect x="38.0" y="-22.0" width="8" height="7" rx="2" fill="#FFB020"/><rect x="-45.0" y="-22.0" width="8" height="7" rx="2" fill="#FFB020"/><circle cx="42.0" cy="-19.0" r="16" fill="url(#glowA)"/><circle cx="-41.0" cy="-19.0" r="16" fill="url(#glowA)"/></g><g transform="translate(196,417.0) rotate(0) scale(1.0)" filter="url(#softShadow)">
    <rect x="-54.0" y="-26.0" width="108" height="52" rx="15.6"
          fill="#E8E9EB" stroke="#2A2D33" stroke-width="2.5"/>
    <path d="M-45.0 -23.0 h90 a6 6 0 0 1 6 6 v34 a6 6 0 0 1 -6 6 h-90 z"
          fill="#000" opacity="0.06"/>
    <path d="M10.8 -20.0 L32.4 -15.0 L32.4 15.0 L10.8 20.0 Z"
          fill="url(#glass)"/>
    <path d="M-32.4 -17.0 L-12.959999999999999 -20.0 L-12.959999999999999 20.0 L-32.4 17.0 Z"
          fill="url(#glass)" opacity="0.85"/>
    <rect x="-10.8" y="-19.0" width="21.6" height="38" rx="5"
          fill="#FFFFFF" opacity="0.10"/><rect x="-8.64" y="-22.0" width="21.6" height="5" rx="2.5" fill="url(#glass)"/><rect x="-8.64" y="17.0" width="21.6" height="5" rx="2.5" fill="url(#glass)"/><rect x="10.8" y="-32.0" width="13" height="7" rx="3" fill="#2A2D33"/><rect x="10.8" y="25.0" width="13" height="7" rx="3" fill="#2A2D33"/><rect x="46.0" y="-21.0" width="7" height="12" rx="3" fill="#FFF3C4"/><rect x="46.0" y="9.0" width="7" height="12" rx="3" fill="#FFF3C4"/><rect x="-53.0" y="-21.0" width="7" height="12" rx="3" fill="#B3261E"/><rect x="-53.0" y="9.0" width="7" height="12" rx="3" fill="#B3261E"/></g><g transform="translate(1002,261.0) rotate(180) scale(1.0)" filter="url(#softShadow)">
    <rect x="-59.0" y="-28.0" width="118" height="56" rx="16.8"
          fill="#2F6FB2" stroke="#2A2D33" stroke-width="2.5"/>
    <path d="M-50.0 -25.0 h100 a6 6 0 0 1 6 6 v38 a6 6 0 0 1 -6 6 h-100 z"
          fill="#000" opacity="0.06"/>
    <path d="M11.8 -22.0 L35.4 -17.0 L35.4 17.0 L11.8 22.0 Z"
          fill="url(#glass)"/>
    <path d="M-35.4 -19.0 L-14.16 -22.0 L-14.16 22.0 L-35.4 19.0 Z"
          fill="url(#glass)" opacity="0.85"/>
    <rect x="-11.8" y="-21.0" width="23.6" height="42" rx="5"
          fill="#FFFFFF" opacity="0.10"/><rect x="-9.44" y="-24.0" width="23.6" height="5" rx="2.5" fill="url(#glass)"/><rect x="-9.44" y="19.0" width="23.6" height="5" rx="2.5" fill="url(#glass)"/><rect x="11.8" y="-34.0" width="13" height="7" rx="3" fill="#2A2D33"/><rect x="11.8" y="27.0" width="13" height="7" rx="3" fill="#2A2D33"/><rect x="51.0" y="-23.0" width="7" height="12" rx="3" fill="#FFF3C4"/><rect x="51.0" y="11.0" width="7" height="12" rx="3" fill="#FFF3C4"/><rect x="-58.0" y="-23.0" width="7" height="12" rx="3" fill="#B3261E"/><rect x="-58.0" y="11.0" width="7" height="12" rx="3" fill="#B3261E"/></g><g transform="translate(826,183.0) rotate(180) scale(1.0)" filter="url(#softShadow)">
    <rect x="-54.0" y="-26.0" width="108" height="52" rx="15.6"
          fill="#3D4450" stroke="#2A2D33" stroke-width="2.5"/>
    <path d="M-45.0 -23.0 h90 a6 6 0 0 1 6 6 v34 a6 6 0 0 1 -6 6 h-90 z"
          fill="#000" opacity="0.06"/>
    <path d="M10.8 -20.0 L32.4 -15.0 L32.4 15.0 L10.8 20.0 Z"
          fill="url(#glass)"/>
    <path d="M-32.4 -17.0 L-12.959999999999999 -20.0 L-12.959999999999999 20.0 L-32.4 17.0 Z"
          fill="url(#glass)" opacity="0.85"/>
    <rect x="-10.8" y="-19.0" width="21.6" height="38" rx="5"
          fill="#FFFFFF" opacity="0.10"/><rect x="-8.64" y="-22.0" width="21.6" height="5" rx="2.5" fill="url(#glass)"/><rect x="-8.64" y="17.0" width="21.6" height="5" rx="2.5" fill="url(#glass)"/><rect x="10.8" y="-32.0" width="13" height="7" rx="3" fill="#2A2D33"/><rect x="10.8" y="25.0" width="13" height="7" rx="3" fill="#2A2D33"/><rect x="46.0" y="-21.0" width="7" height="12" rx="3" fill="#FFF3C4"/><rect x="46.0" y="9.0" width="7" height="12" rx="3" fill="#FFF3C4"/><rect x="-53.0" y="-21.0" width="7" height="12" rx="3" fill="#B3261E"/><rect x="-53.0" y="9.0" width="7" height="12" rx="3" fill="#B3261E"/></g><g transform="translate(617.0,118) rotate(90) scale(1.0)" filter="url(#softShadow)">
    <rect x="-54.0" y="-26.0" width="108" height="52" rx="15.6"
          fill="#3E8E63" stroke="#2A2D33" stroke-width="2.5"/>
    <path d="M-45.0 -23.0 h90 a6 6 0 0 1 6 6 v34 a6 6 0 0 1 -6 6 h-90 z"
          fill="#000" opacity="0.06"/>
    <path d="M10.8 -20.0 L32.4 -15.0 L32.4 15.0 L10.8 20.0 Z"
          fill="url(#glass)"/>
    <path d="M-32.4 -17.0 L-12.959999999999999 -20.0 L-12.959999999999999 20.0 L-32.4 17.0 Z"
          fill="url(#glass)" opacity="0.85"/>
    <rect x="-10.8" y="-19.0" width="21.6" height="38" rx="5"
          fill="#FFFFFF" opacity="0.10"/><rect x="-8.64" y="-22.0" width="21.6" height="5" rx="2.5" fill="url(#glass)"/><rect x="-8.64" y="17.0" width="21.6" height="5" rx="2.5" fill="url(#glass)"/><rect x="10.8" y="-32.0" width="13" height="7" rx="3" fill="#2A2D33"/><rect x="10.8" y="25.0" width="13" height="7" rx="3" fill="#2A2D33"/><rect x="46.0" y="-21.0" width="7" height="12" rx="3" fill="#FFF3C4"/><rect x="46.0" y="9.0" width="7" height="12" rx="3" fill="#FFF3C4"/><rect x="-53.0" y="-21.0" width="7" height="12" rx="3" fill="#B3261E"/><rect x="-53.0" y="9.0" width="7" height="12" rx="3" fill="#B3261E"/></g><g transform="translate(548,574) rotate(-90) scale(1.1)" filter="url(#tinyShadow)"><ellipse cx="-2" cy="0" rx="10" ry="14" fill="#2F5FA8"/><circle cx="3" cy="0" r="7.6" fill="#E8B98F"/><path d="M3,-7.6 A7.6 7.6 0 0 0 3,7.6 Z" fill="#3A2E28"/></g></svg>