<svg xmlns="http://www.w3.org/2000/svg" viewBox="0 0 1200 675" width="1200" height="675">
<defs>
<linearGradient id="sky" x1="0" y1="0" x2="0" y2="1">
  <stop offset="0" stop-color="#8EC5E8"/><stop offset="1" stop-color="#D9EDF7"/>
</linearGradient>
<linearGradient id="skyNight" x1="0" y1="0" x2="0" y2="1">
  <stop offset="0" stop-color="#0B1B33"/><stop offset="1" stop-color="#26405F"/>
</linearGradient>
<linearGradient id="skyDusk" x1="0" y1="0" x2="0" y2="1">
  <stop offset="0" stop-color="#2E4A7A"/><stop offset="0.6" stop-color="#C97A5A"/>
  <stop offset="1" stop-color="#F0C08A"/>
</linearGradient>
<linearGradient id="skyStorm" x1="0" y1="0" x2="0" y2="1">
  <stop offset="0" stop-color="#5A6472"/><stop offset="1" stop-color="#98A2AE"/>
</linearGradient>
<linearGradient id="roadPersp" x1="0" y1="0" x2="0" y2="1">
  <stop offset="0" stop-color="#5A5F69"/><stop offset="1" stop-color="#3C4048"/>
</linearGradient>
<linearGradient id="glass" x1="0" y1="0" x2="0" y2="1">
  <stop offset="0" stop-color="#9FC4DE"/><stop offset="1" stop-color="#6E93AE"/>
</linearGradient>
<radialGradient id="headBeam" cx="0.5" cy="0" r="1">
  <stop offset="0" stop-color="#FFF6C8" stop-opacity="0.85"/>
  <stop offset="1" stop-color="#FFF6C8" stop-opacity="0"/>
</radialGradient>
<radialGradient id="glowW"><stop offset="0" stop-color="#fff" stop-opacity=".95"/>
  <stop offset="1" stop-color="#fff" stop-opacity="0"/></radialGradient>
<radialGradient id="glowR"><stop offset="0" stop-color="#FF3B30" stop-opacity=".95"/>
  <stop offset="1" stop-color="#FF3B30" stop-opacity="0"/></radialGradient>
<radialGradient id="glowB"><stop offset="0" stop-color="#3B82F6" stop-opacity=".95"/>
  <stop offset="1" stop-color="#3B82F6" stop-opacity="0"/></radialGradient>
<radialGradient id="glowA"><stop offset="0" stop-color="#FFB020" stop-opacity=".95"/>
  <stop offset="1" stop-color="#FFB020" stop-opacity="0"/></radialGradient>
<filter id="softShadow" x="-30%" y="-30%" width="160%" height="160%">
  <feDropShadow dx="0" dy="5" stdDeviation="6" flood-color="#000" flood-opacity="0.28"/>
</filter>
<filter id="tinyShadow" x="-30%" y="-30%" width="160%" height="160%">
  <feDropShadow dx="0" dy="2" stdDeviation="2.5" flood-color="#000" flood-opacity="0.3"/>
</filter>
<filter id="blurLight"><feGaussianBlur stdDeviation="10"/></filter>
<filter id="fogFilter"><feGaussianBlur stdDeviation="7"/></filter>
<pattern id="grassTex" width="26" height="26" patternUnits="userSpaceOnUse">
  <rect width="26" height="26" fill="#9CB380"/>
  <path d="M4 20 l3 -8 M13 24 l2 -9 M21 19 l3 -7" stroke="#8AA271" stroke-width="2"
        stroke-linecap="round" opacity=".7"/>
</pattern>
<pattern id="asphaltTex" width="8" height="8" patternUnits="userSpaceOnUse">
  <rect width="8" height="8" fill="#4A4E57"/>
  <circle cx="2" cy="3" r="0.7" fill="#565A63"/><circle cx="6" cy="6" r="0.6" fill="#41454D"/>
</pattern>
</defs><rect x="0" y="0" width="1200" height="675" rx="0" fill="#A9BC8E" /><rect x="60" y="20" width="150" height="96" rx="0" fill="#C7B7A4" /><rect x="54" y="8" width="162" height="14" rx="3" fill="#8E7F6E" /><rect x="76" y="40" width="24" height="28" rx="3" fill="#8FB3CB" /><rect x="124" y="40" width="24" height="28" rx="3" fill="#8FB3CB" /><rect x="172" y="40" width="24" height="28" rx="3" fill="#8FB3CB" /><rect x="300" y="30" width="120" height="86" rx="0" fill="#BFAF9C" /><rect x="294" y="18" width="132" height="14" rx="3" fill="#8E7F6E" /><rect x="316" y="50" width="24" height="28" rx="3" fill="#8FB3CB" /><rect x="364" y="50" width="24" height="28" rx="3" fill="#8FB3CB" /><rect x="820" y="16" width="210" height="100" rx="0" fill="#CBBCA8" /><rect x="814" y="4" width="222" height="14" rx="3" fill="#8E7F6E" /><rect x="836" y="36" width="24" height="28" rx="3" fill="#8FB3CB" /><rect x="884" y="36" width="24" height="28" rx="3" fill="#8FB3CB" /><rect x="932" y="36" width="24" height="28" rx="3" fill="#8FB3CB" /><rect x="980" y="36" width="24" height="28" rx="3" fill="#8FB3CB" /><rect x="120" y="566" width="200" height="96" rx="0" fill="#C0B29F" /><rect x="114" y="554" width="212" height="14" rx="3" fill="#8E7F6E" /><rect x="136" y="586" width="24" height="28" rx="3" fill="#8FB3CB" /><rect x="184" y="586" width="24" height="28" rx="3" fill="#8FB3CB" /><rect x="232" y="586" width="24" height="28" rx="3" fill="#8FB3CB" /><rect x="280" y="586" width="24" height="28" rx="3" fill="#8FB3CB" /><rect x="790" y="578" width="230" height="88" rx="0" fill="#C9B9A5" /><rect x="784" y="566" width="242" height="14" rx="3" fill="#8E7F6E" /><rect x="806" y="598" width="24" height="28" rx="3" fill="#8FB3CB" /><rect x="854" y="598" width="24" height="28" rx="3" fill="#8FB3CB" /><rect x="902" y="598" width="24" height="28" rx="3" fill="#8FB3CB" /><rect x="950" y="598" width="24" height="28" rx="3" fill="#8FB3CB" /><rect x="-20" y="100" width="1240" height="48" rx="0" fill="#C7CAD0" /><path d="M-20 145 H1220" fill="none" stroke="#A7ABB2" stroke-width="3" /><rect x="-20" y="452" width="1240" height="48" rx="0" fill="#C7CAD0" /><path d="M-20 497 H1220" fill="none" stroke="#A7ABB2" stroke-width="3" /><rect x="516" y="-20" width="48" height="715" rx="0" fill="#C7CAD0" /><path d="M561 -20 V695" fill="none" stroke="#A7ABB2" stroke-width="3" /><rect x="716" y="-20" width="48" height="715" rx="0" fill="#C7CAD0" /><path d="M761 -20 V695" fill="none" stroke="#A7ABB2" stroke-width="3" /><rect x="-20" y="148" width="1240" height="304" rx="0" fill="#8C8F96" /><rect x="-20" y="148" width="1240" height="304" rx="0" fill="url(#asphaltTex)" /><path d="M-20 224 H1220" stroke="#F5F7FA" stroke-width="6" stroke-dasharray="52 48" fill="none"/><path d="M-20 376 H1220" stroke="#F5F7FA" stroke-width="6" stroke-dasharray="52 48" fill="none"/><path d="M-20 294 H1220" fill="none" stroke="#F2C037" stroke-width="6" /><path d="M-20 306 H1220" fill="none" stroke="#F2C037" stroke-width="6" /><path d="M-20 152 H1220" fill="none" stroke="#F5F7FA" stroke-width="5" /><path d="M-20 448 H1220" fill="none" stroke="#F5F7FA" stroke-width="5" /><rect x="564" y="-20" width="152" height="715" rx="0" fill="#8C8F96" /><rect x="564" y="-20" width="152" height="715" rx="0" fill="url(#asphaltTex)" /><path d="M634 -20 V695" fill="none" stroke="#F2C037" stroke-width="6" /><path d="M646 -20 V695" fill="none" stroke="#F2C037" stroke-width="6" /><path d="M568 -20 V695" fill="none" stroke="#F5F7FA" stroke-width="5" /><path d="M712 -20 V695" fill="none" stroke="#F5F7FA" stroke-width="5" /><rect x="564" y="148" width="152" height="304" rx="0" fill="url(#asphaltTex)" /><rect x="502" y="163.5" width="52" height="17" rx="0" fill="#F5F7FA" opacity=".95"/><rect x="502" y="195.5" width="52" height="17" rx="0" fill="#F5F7FA" opacity=".95"/><rect x="502" y="227.5" width="52" height="17" rx="0" fill="#F5F7FA" opacity=".95"/><rect x="502" y="259.5" width="52" height="17" rx="0" fill="#F5F7FA" opacity=".95"/><rect x="502" y="291.5" width="52" height="17" rx="0" fill="#F5F7FA" opacity=".95"/><rect x="502" y="323.5" width="52" height="17" rx="0" fill="#F5F7FA" opacity=".95"/><rect x="502" y="355.5" width="52" height="17" rx="0" fill="#F5F7FA" opacity=".95"/><rect x="502" y="387.5" width="52" height="17" rx="0" fill="#F5F7FA" opacity=".95"/><rect x="502" y="419.5" width="52" height="17" rx="0" fill="#F5F7FA" opacity=".95"/><rect x="726" y="163.5" width="52" height="17" rx="0" fill="#F5F7FA" opacity=".95"/><rect x="726" y="195.5" width="52" height="17" rx="0" fill="#F5F7FA" opacity=".95"/><rect x="726" y="227.5" width="52" height="17" rx="0" fill="#F5F7FA" opacity=".95"/><rect x="726" y="259.5" width="52" height="17" rx="0" fill="#F5F7FA" opacity=".95"/><rect x="726" y="291.5" width="52" height="17" rx="0" fill="#F5F7FA" opacity=".95"/><rect x="726" y="323.5" width="52" height="17" rx="0" fill="#F5F7FA" opacity=".95"/><rect x="726" y="355.5" width="52" height="17" rx="0" fill="#F5F7FA" opacity=".95"/><rect x="726" y="387.5" width="52" height="17" rx="0" fill="#F5F7FA" opacity=".95"/><rect x="726" y="419.5" width="52" height="17" rx="0" fill="#F5F7FA" opacity=".95"/><rect x="583.5" y="88" width="17" height="52" rx="0" fill="#F5F7FA" opacity=".95"/><rect x="615.5" y="88" width="17" height="52" rx="0" fill="#F5F7FA" opacity=".95"/><rect x="647.5" y="88" width="17" height="52" rx="0" fill="#F5F7FA" opacity=".95"/><rect x="679.5" y="88" width="17" height="52" rx="0" fill="#F5F7FA" opacity=".95"/><rect x="583.5" y="460" width="17" height="52" rx="0" fill="#F5F7FA" opacity=".95"/><rect x="615.5" y="460" width="17" height="52" rx="0" fill="#F5F7FA" opacity=".95"/><rect x="647.5" y="460" width="17" height="52" rx="0" fill="#F5F7FA" opacity=".95"/><rect x="679.5" y="460" width="17" height="52" rx="0" fill="#F5F7FA" opacity=".95"/><rect x="484" y="300" width="16" height="152" rx="0" fill="#F5F7FA" /><rect x="780" y="148" width="16" height="152" rx="0" fill="#F5F7FA" /><rect x="782" y="456" width="130" height="12" rx="0" fill="#D32F2F" stroke="#8A8D93" stroke-width="1.5" /><g transform="translate(150,122)" filter="url(#tinyShadow)"><circle cx="0" cy="0" r="25" fill="#2F5F3C" /><circle cx="-7.000000000000001" cy="-7.000000000000001" r="18.0" fill="#3F7A48" /><circle cx="8.5" cy="5.0" r="13.0" fill="#4C8C55" /></g><g transform="translate(1060,122)" filter="url(#tinyShadow)"><circle cx="0" cy="0" r="25" fill="#2F5F3C" /><circle cx="-7.000000000000001" cy="-7.000000000000001" r="18.0" fill="#3F7A48" /><circle cx="8.5" cy="5.0" r="13.0" fill="#4C8C55" /></g><g transform="translate(300,478)" filter="url(#tinyShadow)"><circle cx="0" cy="0" r="25" fill="#2F5F3C" /><circle cx="-7.000000000000001" cy="-7.000000000000001" r="18.0" fill="#3F7A48" /><circle cx="8.5" cy="5.0" r="13.0" fill="#4C8C55" /></g><g transform="translate(430,414.0) rotate(0) scale(1.0)" filter="url(#softShadow)">
    <rect x="-59.0" y="-28.0" width="118" height="56" rx="16.8"
          fill="#C97A2B" stroke="#2A2D33" stroke-width="2.5"/>
    <path d="M-50.0 -25.0 h100 a6 6 0 0 1 6 6 v38 a6 6 0 0 1 -6 6 h-100 z"
          fill="#000" opacity="0.06"/>
    <path d="M11.8 -22.0 L35.4 -17.0 L35.4 17.0 L11.8 22.0 Z"
          fill="url(#glass)"/>
    <path d="M-35.4 -19.0 L-14.16 -22.0 L-14.16 22.0 L-35.4 19.0 Z"
          fill="url(#glass)" opacity="0.85"/>
    <rect x="-11.8" y="-21.0" width="23.6" height="42" rx="5"
          fill="#FFFFFF" opacity="0.10"/><rect x="-9.44" y="-24.0" width="23.6" height="5" rx="2.5" fill="url(#glass)"/><rect x="-9.44" y="19.0" width="23.6" height="5" rx="2.5" fill="url(#glass)"/><rect x="11.8" y="-34.0" width="13" height="7" rx="3" fill="#2A2D33"/><rect x="11.8" y="27.0" width="13" height="7" rx="3" fill="#2A2D33"/><rect x="51.0" y="-23.0" width="7" height="12" rx="3" fill="#FFF3C4"/><rect x="51.0" y="11.0" width="7" height="12" rx="3" fill="#FFF3C4"/><rect x="-58.0" y="-23.0" width="7" height="12" rx="3" fill="#B3261E"/><rect x="-58.0" y="11.0" width="7" height="12" rx="3" fill="#B3261E"/><rect x="43.0" y="18.0" width="8" height="7" rx="2" fill="#FFB020"/><rect x="-50.0" y="18.0" width="8" height="7" rx="2" fill="#FFB020"/><circle cx="47.0" cy="21.0" r="16" fill="url(#glowA)"/><circle cx="-46.0" cy="21.0" r="16" fill="url(#glowA)"/></g><g transform="translate(250,338.0) rotate(0) scale(1.0)" filter="url(#softShadow)">
    <rect x="-54.0" y="-26.0" width="108" height="52" rx="15.6"
          fill="#E8E9EB" stroke="#2A2D33" stroke-width="2.5"/>
    <path d="M-45.0 -23.0 h90 a6 6 0 0 1 6 6 v34 a6 6 0 0 1 -6 6 h-90 z"
          fill="#000" opacity="0.06"/>
    <path d="M10.8 -20.0 L32.4 -15.0 L32.4 15.0 L10.8 20.0 Z"
          fill="url(#glass)"/>
    <path d="M-32.4 -17.0 L-12.959999999999999 -20.0 L-12.959999999999999 20.0 L-32.4 17.0 Z"
          fill="url(#glass)" opacity="0.85"/>
    <rect x="-10.8" y="-19.0" width="21.6" height="38" rx="5"
          fill="#FFFFFF" opacity="0.10"/><rect x="-8.64" y="-22.0" width="21.6" height="5" rx="2.5" fill="url(#glass)"/><rect x="-8.64" y="17.0" width="21.6" height="5" rx="2.5" fill="url(#glass)"/><rect x="10.8" y="-32.0" width="13" height="7" rx="3" fill="#2A2D33"/><rect x="10.8" y="25.0" width="13" height="7" rx="3" fill="#2A2D33"/><rect x="46.0" y="-21.0" width="7" height="12" rx="3" fill="#FFF3C4"/><rect x="46.0" y="9.0" width="7" height="12" rx="3" fill="#FFF3C4"/><rect x="-53.0" y="-21.0" width="7" height="12" rx="3" fill="#B3261E"/><rect x="-53.0" y="9.0" width="7" height="12" rx="3" fill="#B3261E"/></g><g transform="translate(940,262.0) rotate(180) scale(1.0)" filter="url(#softShadow)">
    <rect x="-54.0" y="-26.0" width="108" height="52" rx="15.6"
          fill="#3D4450" stroke="#2A2D33" stroke-width="2.5"/>
    <path d="M-45.0 -23.0 h90 a6 6 0 0 1 6 6 v34 a6 6 0 0 1 -6 6 h-90 z"
          fill="#000" opacity="0.06"/>
    <path d="M10.8 -20.0 L32.4 -15.0 L32.4 15.0 L10.8 20.0 Z"
          fill="url(#glass)"/>
    <path d="M-32.4 -17.0 L-12.959999999999999 -20.0 L-12.959999999999999 20.0 L-32.4 17.0 Z"
          fill="url(#glass)" opacity="0.85"/>
    <rect x="-10.8" y="-19.0" width="21.6" height="38" rx="5"
          fill="#FFFFFF" opacity="0.10"/><rect x="-8.64" y="-22.0" width="21.6" height="5" rx="2.5" fill="url(#glass)"/><rect x="-8.64" y="17.0" width="21.6" height="5" rx="2.5" fill="url(#glass)"/><rect x="10.8" y="-32.0" width="13" height="7" rx="3" fill="#2A2D33"/><rect x="10.8" y="25.0" width="13" height="7" rx="3" fill="#2A2D33"/><rect x="46.0" y="-21.0" width="7" height="12" rx="3" fill="#FFF3C4"/><rect x="46.0" y="9.0" width="7" height="12" rx="3" fill="#FFF3C4"/><rect x="-53.0" y="-21.0" width="7" height="12" rx="3" fill="#B3261E"/><rect x="-53.0" y="9.0" width="7" height="12" rx="3" fill="#B3261E"/></g><g transform="translate(654,486) rotate(180) scale(1.25)" filter="url(#tinyShadow)"><ellipse cx="-2" cy="0" rx="10" ry="14" fill="#B2543A"/><circle cx="3" cy="0" r="7.6" fill="#E8B98F"/><path d="M3,-7.6 A7.6 7.6 0 0 0 3,7.6 Z" fill="#3A2E28"/></g><g transform="translate(614,498) rotate(180) scale(1.25)" filter="url(#tinyShadow)"><ellipse cx="-2" cy="0" rx="10" ry="14" fill="#2E7D5B"/><circle cx="3" cy="0" r="7.6" fill="#E8B98F"/><path d="M3,-7.6 A7.6 7.6 0 0 0 3,7.6 Z" fill="#3A2E28"/></g><rect x="745.68" y="589.1264" width="8.64" height="11.88" rx="4" fill="#6B717A" /><ellipse cx="750" cy="602.8464" rx="14.040000000000001" ry="5.94" fill="#5C626B"/><g transform="translate(750,552) scale(0.54)" filter="url(#softShadow)"><rect x="-28.0" y="-76.16000000000001" width="56" height="152.32000000000002" rx="8.96" fill="#15181D" stroke="#0A0C0F" stroke-width="3" /><circle cx="0" cy="-45.696000000000005" r="19.040000000000003" fill="#0B0D11" /><circle cx="0" cy="-45.696000000000005" r="17.8976" fill="#4A2320" /><path d="M-29.512000000000004 -70.8288 h59.02400000000001 v9.520000000000001 a29.512000000000004 29.512000000000004 0 0 0 -59.02400000000001 0 z" fill="#0E1014" /><circle cx="0" cy="0" r="19.040000000000003" fill="#0B0D11" /><circle cx="0" cy="0" r="17.8976" fill="#4A3A18" /><path d="M-29.512000000000004 -25.132800000000003 h59.02400000000001 v9.520000000000001 a29.512000000000004 29.512000000000004 0 0 0 -59.02400000000001 0 z" fill="#0E1014" /><circle cx="0" cy="45.696000000000005" r="19.040000000000003" fill="#0B0D11" /><circle cx="0" cy="45.696000000000005" r="17.8976" fill="#20C55E" /><circle cx="0" cy="45.696000000000005" r="40.93600000000001" fill="url(#glowW)" opacity=".55"/><path d="M-29.512000000000004 20.563200000000002 h59.02400000000001 v9.520000000000001 a29.512000000000004 29.512000000000004 0 0 0 -59.02400000000001 0 z" fill="#0E1014" /></g><rect x="526.0" y="82.08000000000001" width="8.0" height="11.0" rx="4" fill="#6B717A" /><ellipse cx="530" cy="95.08000000000001" rx="13.0" ry="5.5" fill="#5C626B"/><g transform="translate(530,48) scale(0.5)" filter="url(#softShadow)"><rect x="-28.0" y="-76.16000000000001" width="56" height="152.32000000000002" rx="8.96" fill="#15181D" stroke="#0A0C0F" stroke-width="3" /><circle cx="0" cy="-45.696000000000005" r="19.040000000000003" fill="#0B0D11" /><circle cx="0" cy="-45.696000000000005" r="17.8976" fill="#4A2320" /><path d="M-29.512000000000004 -70.8288 h59.02400000000001 v9.520000000000001 a29.512000000000004 29.512000000000004 0 0 0 -59.02400000000001 0 z" fill="#0E1014" /><circle cx="0" cy="0" r="19.040000000000003" fill="#0B0D11" /><circle cx="0" cy="0" r="17.8976" fill="#4A3A18" /><path d="M-29.512000000000004 -25.132800000000003 h59.02400000000001 v9.520000000000001 a29.512000000000004 29.512000000000004 0 0 0 -59.02400000000001 0 z" fill="#0E1014" /><circle cx="0" cy="45.696000000000005" r="19.040000000000003" fill="#0B0D11" /><circle cx="0" cy="45.696000000000005" r="17.8976" fill="#20C55E" /><circle cx="0" cy="45.696000000000005" r="40.93600000000001" fill="url(#glowW)" opacity=".55"/><path d="M-29.512000000000004 20.563200000000002 h59.02400000000001 v9.520000000000001 a29.512000000000004 29.512000000000004 0 0 0 -59.02400000000001 0 z" fill="#0E1014" /></g></svg>