<svg xmlns="http://www.w3.org/2000/svg" viewBox="0 0 1200 675" width="1200" height="675">
<defs>
<linearGradient id="sky" x1="0" y1="0" x2="0" y2="1">
  <stop offset="0" stop-color="#8EC5E8"/><stop offset="1" stop-color="#D9EDF7"/>
</linearGradient>
<linearGradient id="skyNight" x1="0" y1="0" x2="0" y2="1">
  <stop offset="0" stop-color="#0B1B33"/><stop offset="1" stop-color="#26405F"/>
</linearGradient>
<linearGradient id="skyDusk" x1="0" y1="0" x2="0" y2="1">
  <stop offset="0" stop-color="#2E4A7A"/><stop offset="0.6" stop-color="#C97A5A"/>
  <stop offset="1" stop-color="#F0C08A"/>
</linearGradient>
<linearGradient id="skyStorm" x1="0" y1="0" x2="0" y2="1">
  <stop offset="0" stop-color="#5A6472"/><stop offset="1" stop-color="#98A2AE"/>
</linearGradient>
<linearGradient id="roadPersp" x1="0" y1="0" x2="0" y2="1">
  <stop offset="0" stop-color="#5A5F69"/><stop offset="1" stop-color="#3C4048"/>
</linearGradient>
<linearGradient id="glass" x1="0" y1="0" x2="0" y2="1">
  <stop offset="0" stop-color="#9FC4DE"/><stop offset="1" stop-color="#6E93AE"/>
</linearGradient>
<radialGradient id="headBeam" cx="0.5" cy="0" r="1">
  <stop offset="0" stop-color="#FFF6C8" stop-opacity="0.85"/>
  <stop offset="1" stop-color="#FFF6C8" stop-opacity="0"/>
</radialGradient>
<radialGradient id="glowW"><stop offset="0" stop-color="#fff" stop-opacity=".95"/>
  <stop offset="1" stop-color="#fff" stop-opacity="0"/></radialGradient>
<radialGradient id="glowR"><stop offset="0" stop-color="#FF3B30" stop-opacity=".95"/>
  <stop offset="1" stop-color="#FF3B30" stop-opacity="0"/></radialGradient>
<radialGradient id="glowB"><stop offset="0" stop-color="#3B82F6" stop-opacity=".95"/>
  <stop offset="1" stop-color="#3B82F6" stop-opacity="0"/></radialGradient>
<radialGradient id="glowA"><stop offset="0" stop-color="#FFB020" stop-opacity=".95"/>
  <stop offset="1" stop-color="#FFB020" stop-opacity="0"/></radialGradient>
<filter id="softShadow" x="-30%" y="-30%" width="160%" height="160%">
  <feDropShadow dx="0" dy="5" stdDeviation="6" flood-color="#000" flood-opacity="0.28"/>
</filter>
<filter id="tinyShadow" x="-30%" y="-30%" width="160%" height="160%">
  <feDropShadow dx="0" dy="2" stdDeviation="2.5" flood-color="#000" flood-opacity="0.3"/>
</filter>
<filter id="blurLight"><feGaussianBlur stdDeviation="10"/></filter>
<filter id="fogFilter"><feGaussianBlur stdDeviation="7"/></filter>
<pattern id="grassTex" width="26" height="26" patternUnits="userSpaceOnUse">
  <rect width="26" height="26" fill="#9CB380"/>
  <path d="M4 20 l3 -8 M13 24 l2 -9 M21 19 l3 -7" stroke="#8AA271" stroke-width="2"
        stroke-linecap="round" opacity=".7"/>
</pattern>
<pattern id="asphaltTex" width="8" height="8" patternUnits="userSpaceOnUse">
  <rect width="8" height="8" fill="#4A4E57"/>
  <circle cx="2" cy="3" r="0.7" fill="#565A63"/><circle cx="6" cy="6" r="0.6" fill="#41454D"/>
</pattern>
</defs><rect x="0" y="0" width="1200" height="675" rx="0" fill="#A9B492" /><rect x="30" y="22" width="270" height="118" rx="0" fill="#C0B4A4" stroke="#948D84" stroke-width="3" /><rect x="44" y="36" width="242" height="90" rx="0" fill="none" stroke="#7E786F" stroke-width="2" opacity=".55"/><rect x="105.60000000000001" y="55.040000000000006" width="42" height="28" rx="4" fill="#9AA3AE" /><rect x="192.0" y="88.08000000000001" width="30" height="24" rx="4" fill="#9AA3AE" /><rect x="950" y="18" width="230" height="122" rx="0" fill="#B7B0A6" stroke="#948D84" stroke-width="3" /><rect x="964" y="32" width="202" height="94" rx="0" fill="none" stroke="#7E786F" stroke-width="2" opacity=".55"/><rect x="1014.4" y="52.160000000000004" width="42" height="28" rx="4" fill="#9AA3AE" /><rect x="1088.0" y="86.32000000000001" width="30" height="24" rx="4" fill="#9AA3AE" /><rect x="40" y="604" width="250" height="72" rx="0" fill="#C0B4A4" stroke="#948D84" stroke-width="3" /><rect x="54" y="618" width="222" height="44" rx="0" fill="none" stroke="#7E786F" stroke-width="2" opacity=".55"/><rect x="110.0" y="624.16" width="42" height="28" rx="4" fill="#9AA3AE" /><rect x="190.0" y="644.32" width="30" height="24" rx="4" fill="#9AA3AE" /><g transform="translate(376,86)"><circle cx="4" cy="5" r="27" fill="#000000" opacity=".18"/><circle cx="0" cy="0" r="27" fill="#3E7A4A" /><circle cx="-8.1" cy="-8.1" r="11.88" fill="#4F9159" /></g><g transform="translate(600,92)"><circle cx="4" cy="5" r="24" fill="#000000" opacity=".18"/><circle cx="0" cy="0" r="24" fill="#3E7A4A" /><circle cx="-7.199999999999999" cy="-7.199999999999999" r="10.56" fill="#4F9159" /></g><g transform="translate(1150,636)"><circle cx="4" cy="5" r="26" fill="#000000" opacity=".18"/><circle cx="0" cy="0" r="26" fill="#3E7A4A" /><circle cx="-7.8" cy="-7.8" r="11.44" fill="#4F9159" /></g><rect x="-20" y="118" width="1240" height="44" rx="0" fill="#C7CAD0" /><path d="M-20 159 H1220" fill="none" stroke="#A7ABB2" stroke-width="3" /><rect x="-20" y="544" width="1240" height="46" rx="0" fill="#C7CAD0" /><path d="M-20 587 H1220" fill="none" stroke="#A7ABB2" stroke-width="3" /><rect x="740" y="-20" width="44" height="715" rx="0" fill="#C7CAD0" /><path d="M781 -20 V695" fill="none" stroke="#A7ABB2" stroke-width="3" /><rect x="976" y="-20" width="44" height="715" rx="0" fill="#C7CAD0" /><path d="M1017 -20 V695" fill="none" stroke="#A7ABB2" stroke-width="3" /><rect x="-20" y="162" width="1240" height="336" rx="0" fill="#8C8F96" /><rect x="-20" y="178" width="1240" height="304" rx="0" fill="url(#asphaltTex)" /><path d="M-20 254 H1220" stroke="#F5F7FA" stroke-width="6" stroke-dasharray="52 48" fill="none"/><path d="M-20 406 H1220" stroke="#F5F7FA" stroke-width="6" stroke-dasharray="52 48" fill="none"/><path d="M-20 324 H1220" fill="none" stroke="#F2C037" stroke-width="6" /><path d="M-20 336 H1220" fill="none" stroke="#F2C037" stroke-width="6" /><path d="M-20 182 H1220" fill="none" stroke="#F5F7FA" stroke-width="5" /><path d="M-20 478 H1220" fill="none" stroke="#F5F7FA" stroke-width="5" /><rect x="-20" y="482" width="1240" height="52" rx="0" fill="url(#asphaltTex)" /><rect x="-20" y="482" width="1240" height="52" rx="0" fill="#0E8A4A" opacity=".55"/><path d="M-20 482 H1220" fill="none" stroke="#F5F7FA" stroke-width="5" /><g transform="translate(300,508.0)"><g transform="scale(1.0)">
    <g fill="#F5F7FA">
      <circle cx="-22" cy="0" r="12" fill="none" stroke="#F5F7FA" stroke-width="4.5"/>
      <circle cx="22" cy="0" r="12" fill="none" stroke="#F5F7FA" stroke-width="4.5"/>
      <path d="M-22 0 L-4 -12 L10 -12 L22 0" fill="none" stroke="#F5F7FA" stroke-width="4.5"
            stroke-linejoin="round"/>
      <path d="M-4 -12 L2 6 L22 0" fill="none" stroke="#F5F7FA" stroke-width="4.5"/>
      <path d="M8 -14 H20" stroke="#F5F7FA" stroke-width="4.5" stroke-linecap="round"/>
    </g></g></g><path d="M-20 532 H1220" fill="none" stroke="#F5F7FA" stroke-width="5" /><rect x="-20" y="534" width="1240" height="11" rx="0" fill="#D3D6DB" stroke="#AFB3B9" stroke-width="1.5" /><rect x="784" y="-20" width="192" height="715" rx="0" fill="#8C8F96" /><rect x="800" y="-20" width="160" height="715" rx="0" fill="url(#asphaltTex)" /><path d="M880 -20 V695" stroke="#F2C037" stroke-width="6" stroke-dasharray="44 40" fill="none"/><path d="M804 -20 V695" fill="none" stroke="#F5F7FA" stroke-width="5" /><path d="M956 -20 V695" fill="none" stroke="#F5F7FA" stroke-width="5" /><rect x="800" y="178" width="160" height="356" rx="0" fill="url(#asphaltTex)" /><rect x="734" y="189.5" width="56" height="17" rx="0" fill="#F5F7FA" opacity=".95"/><rect x="734" y="221.5" width="56" height="17" rx="0" fill="#F5F7FA" opacity=".95"/><rect x="734" y="253.5" width="56" height="17" rx="0" fill="#F5F7FA" opacity=".95"/><rect x="734" y="285.5" width="56" height="17" rx="0" fill="#F5F7FA" opacity=".95"/><rect x="734" y="317.5" width="56" height="17" rx="0" fill="#F5F7FA" opacity=".95"/><rect x="734" y="349.5" width="56" height="17" rx="0" fill="#F5F7FA" opacity=".95"/><rect x="734" y="381.5" width="56" height="17" rx="0" fill="#F5F7FA" opacity=".95"/><rect x="734" y="413.5" width="56" height="17" rx="0" fill="#F5F7FA" opacity=".95"/><rect x="734" y="445.5" width="56" height="17" rx="0" fill="#F5F7FA" opacity=".95"/><rect x="734" y="477.5" width="56" height="17" rx="0" fill="#F5F7FA" opacity=".95"/><rect x="734" y="509.5" width="56" height="17" rx="0" fill="#F5F7FA" opacity=".95"/><rect x="970" y="189.5" width="56" height="17" rx="0" fill="#F5F7FA" opacity=".95"/><rect x="970" y="221.5" width="56" height="17" rx="0" fill="#F5F7FA" opacity=".95"/><rect x="970" y="253.5" width="56" height="17" rx="0" fill="#F5F7FA" opacity=".95"/><rect x="970" y="285.5" width="56" height="17" rx="0" fill="#F5F7FA" opacity=".95"/><rect x="970" y="317.5" width="56" height="17" rx="0" fill="#F5F7FA" opacity=".95"/><rect x="970" y="349.5" width="56" height="17" rx="0" fill="#F5F7FA" opacity=".95"/><rect x="970" y="381.5" width="56" height="17" rx="0" fill="#F5F7FA" opacity=".95"/><rect x="970" y="413.5" width="56" height="17" rx="0" fill="#F5F7FA" opacity=".95"/><rect x="970" y="445.5" width="56" height="17" rx="0" fill="#F5F7FA" opacity=".95"/><rect x="970" y="477.5" width="56" height="17" rx="0" fill="#F5F7FA" opacity=".95"/><rect x="970" y="509.5" width="56" height="17" rx="0" fill="#F5F7FA" opacity=".95"/><rect x="823.5" y="112" width="17" height="56" rx="0" fill="#F5F7FA" opacity=".95"/><rect x="855.5" y="112" width="17" height="56" rx="0" fill="#F5F7FA" opacity=".95"/><rect x="887.5" y="112" width="17" height="56" rx="0" fill="#F5F7FA" opacity=".95"/><rect x="919.5" y="112" width="17" height="56" rx="0" fill="#F5F7FA" opacity=".95"/><rect x="823.5" y="546" width="17" height="56" rx="0" fill="#F5F7FA" opacity=".95"/><rect x="855.5" y="546" width="17" height="56" rx="0" fill="#F5F7FA" opacity=".95"/><rect x="887.5" y="546" width="17" height="56" rx="0" fill="#F5F7FA" opacity=".95"/><rect x="919.5" y="546" width="17" height="56" rx="0" fill="#F5F7FA" opacity=".95"/><g transform="translate(726.32,420.96) rotate(90)"><g transform="translate(0,0) scale(0.72)"><path d="M6,46 L6,-2 C6,-16 16,-22 30,-22 L30,-34 L58,-14 L30,6 L30,-8 C20,-8 20,-4 20,4 L20,46 Z" fill="#F5F7FA" opacity=".95"/></g></g><g transform="translate(700,574) scale(0.95)" filter="url(#tinyShadow)"><rect x="-9" y="-34" width="18" height="34" rx="4" fill="#D9342B"/><circle cx="0" cy="-36" r="9" fill="#D9342B"/><rect x="-16" y="-24" width="32" height="7" rx="3" fill="#B92B22"/><rect x="-14" y="-2" width="28" height="6" rx="2" fill="#B92B22"/></g><g transform="translate(486,578) scale(0.95)"><rect x="-4" y="-46" width="8" height="46" fill="#7B818B"/><rect x="-14" y="-72" width="28" height="30" rx="6" fill="#4A5058"/><rect x="-9" y="-66" width="18" height="12" rx="3" fill="#A9E5C8"/></g><g transform="translate(1044,216.0) rotate(180) scale(1.0)" filter="url(#softShadow)">
    <rect x="-54.0" y="-26.0" width="108" height="52" rx="15.6"
          fill="#3D4450" stroke="#2A2D33" stroke-width="2.5"/>
    <path d="M-45.0 -23.0 h90 a6 6 0 0 1 6 6 v34 a6 6 0 0 1 -6 6 h-90 z"
          fill="#000" opacity="0.06"/>
    <path d="M10.8 -20.0 L32.4 -15.0 L32.4 15.0 L10.8 20.0 Z"
          fill="url(#glass)"/>
    <path d="M-32.4 -17.0 L-12.959999999999999 -20.0 L-12.959999999999999 20.0 L-32.4 17.0 Z"
          fill="url(#glass)" opacity="0.85"/>
    <rect x="-10.8" y="-19.0" width="21.6" height="38" rx="5"
          fill="#FFFFFF" opacity="0.10"/><rect x="-8.64" y="-22.0" width="21.6" height="5" rx="2.5" fill="url(#glass)"/><rect x="-8.64" y="17.0" width="21.6" height="5" rx="2.5" fill="url(#glass)"/><rect x="10.8" y="-32.0" width="13" height="7" rx="3" fill="#2A2D33"/><rect x="10.8" y="25.0" width="13" height="7" rx="3" fill="#2A2D33"/><rect x="46.0" y="-21.0" width="7" height="12" rx="3" fill="#FFF3C4"/><rect x="46.0" y="9.0" width="7" height="12" rx="3" fill="#FFF3C4"/><rect x="-53.0" y="-21.0" width="7" height="12" rx="3" fill="#B3261E"/><rect x="-53.0" y="9.0" width="7" height="12" rx="3" fill="#B3261E"/></g><g transform="translate(186,368.0) rotate(0) scale(1.0)" filter="url(#softShadow)">
    <rect x="-59.0" y="-28.0" width="118" height="56" rx="16.8"
          fill="#E8E9EB" stroke="#2A2D33" stroke-width="2.5"/>
    <path d="M-50.0 -25.0 h100 a6 6 0 0 1 6 6 v38 a6 6 0 0 1 -6 6 h-100 z"
          fill="#000" opacity="0.06"/>
    <path d="M11.8 -22.0 L35.4 -17.0 L35.4 17.0 L11.8 22.0 Z"
          fill="url(#glass)"/>
    <path d="M-35.4 -19.0 L-14.16 -22.0 L-14.16 22.0 L-35.4 19.0 Z"
          fill="url(#glass)" opacity="0.85"/>
    <rect x="-11.8" y="-21.0" width="23.6" height="42" rx="5"
          fill="#FFFFFF" opacity="0.10"/><rect x="-9.44" y="-24.0" width="23.6" height="5" rx="2.5" fill="url(#glass)"/><rect x="-9.44" y="19.0" width="23.6" height="5" rx="2.5" fill="url(#glass)"/><rect x="11.8" y="-34.0" width="13" height="7" rx="3" fill="#2A2D33"/><rect x="11.8" y="27.0" width="13" height="7" rx="3" fill="#2A2D33"/><rect x="51.0" y="-23.0" width="7" height="12" rx="3" fill="#FFF3C4"/><rect x="51.0" y="11.0" width="7" height="12" rx="3" fill="#FFF3C4"/><rect x="-58.0" y="-23.0" width="7" height="12" rx="3" fill="#B3261E"/><rect x="-58.0" y="11.0" width="7" height="12" rx="3" fill="#B3261E"/></g><g transform="translate(648,508) rotate(0) scale(1.45)" filter="url(#tinyShadow)"><ellipse cx="-27" cy="0" rx="15" ry="3.4" fill="#1D2026"/><ellipse cx="27" cy="0" rx="15" ry="3.4" fill="#1D2026"/><rect x="-28" y="-2" width="57" height="4" rx="2" fill="#1F2A36"/><rect x="15" y="-13" width="4" height="26" rx="2" fill="#5A616A"/><g transform="translate(-1,0)"><rect x="-13.750000000000002" y="-10.0" width="25" height="20" rx="8.4" fill="#2F6FB2"/><circle cx="2.5" cy="0" r="8.0" fill="#E4572E"/><path d="M2.5,-8.0 A8.0 8.0 0 0 1 2.5,8.0 Z" fill="#15181D" opacity=".55"/><circle cx="2.5" cy="0" r="8.0" fill="none" stroke="#00000033" stroke-width="1.4"/></g></g><g transform="translate(500,444.0) rotate(0) scale(1.0)" filter="url(#softShadow)">
    <rect x="-54.0" y="-26.0" width="108" height="52" rx="15.6"
          fill="#C97A2B" stroke="#2A2D33" stroke-width="2.5"/>
    <path d="M-45.0 -23.0 h90 a6 6 0 0 1 6 6 v34 a6 6 0 0 1 -6 6 h-90 z"
          fill="#000" opacity="0.06"/>
    <path d="M10.8 -20.0 L32.4 -15.0 L32.4 15.0 L10.8 20.0 Z"
          fill="url(#glass)"/>
    <path d="M-32.4 -17.0 L-12.959999999999999 -20.0 L-12.959999999999999 20.0 L-32.4 17.0 Z"
          fill="url(#glass)" opacity="0.85"/>
    <rect x="-10.8" y="-19.0" width="21.6" height="38" rx="5"
          fill="#FFFFFF" opacity="0.10"/><rect x="-8.64" y="-22.0" width="21.6" height="5" rx="2.5" fill="url(#glass)"/><rect x="-8.64" y="17.0" width="21.6" height="5" rx="2.5" fill="url(#glass)"/><rect x="10.8" y="-32.0" width="13" height="7" rx="3" fill="#2A2D33"/><rect x="10.8" y="25.0" width="13" height="7" rx="3" fill="#2A2D33"/><rect x="46.0" y="-21.0" width="7" height="12" rx="3" fill="#FFF3C4"/><rect x="46.0" y="9.0" width="7" height="12" rx="3" fill="#FFF3C4"/><rect x="-53.0" y="-21.0" width="7" height="12" rx="3" fill="#B3261E"/><rect x="-53.0" y="9.0" width="7" height="12" rx="3" fill="#B3261E"/><rect x="38.0" y="16.0" width="8" height="7" rx="2" fill="#FFB020"/><rect x="-45.0" y="16.0" width="8" height="7" rx="2" fill="#FFB020"/><circle cx="42.0" cy="19.0" r="16" fill="url(#glowA)"/><circle cx="-41.0" cy="19.0" r="16" fill="url(#glowA)"/></g></svg>